  0
SECTION
  2
HEADER
  9
$ACADVER
  1
AC1014
  9
$HANDSEED
  5
FFFF
  9
$MEASUREMENT
 70
     1
  0
ENDSEC
  0
SECTION
  2
TABLES
  0
TABLE
  2
VPORT
  5
8
330
0
100
AcDbSymbolTable
 70
     4
  0
VPORT
  5
2E
330
8
100
AcDbSymbolTableRecord
100
AcDbViewportTableRecord
  2
*ACTIVE
 70
     0
 10
0.0
 20
0.0
 11
1.0
 21
1.0
 12
210.0
 22
148.5
 13
0.0
 23
0.0
 14
10.0
 24
10.0
 15
10.0
 25
10.0
 16
0.0
 26
0.0
 36
1.0
 17
0.0
 27
0.0
 37
0.0
 40
341.0
 41
1.24
 42
50.0
 43
0.0
 44
0.0
 50
0.0
 51
0.0
 71
     0
 72
   100
 73
     1
 74
     3
 75
     0
 76
     0
 77
     0
 78
     0
  0
ENDTAB
  0
TABLE
  2
LTYPE
  5
5
330
0
100
AcDbSymbolTable
 70
     1
  0
LTYPE
  5
14
330
5
100
AcDbSymbolTableRecord
100
AcDbLinetypeTableRecord
  2
BYBLOCK
 70
     0
  3

 72
    65
 73
     0
 40
0.0
  0
LTYPE
  5
15
330
5
100
AcDbSymbolTableRecord
100
AcDbLinetypeTableRecord
  2
BYLAYER
 70
     0
  3

 72
    65
 73
     0
 40
0.0
  0
LTYPE
  5
16
330
5
100
AcDbSymbolTableRecord
100
AcDbLinetypeTableRecord
  2
CONTINUOUS
 70
     0
  3
Solid line
 72
    65
 73
     0
 40
0.0
  0
ENDTAB
  0
TABLE
  2
LAYER
  5
2
100
AcDbSymbolTable
 70
1
  0
LAYER
  5
50
100
AcDbSymbolTableRecord
100
AcDbLayerTableRecord
  2
0
 70
0
  6
CONTINUOUS
  0
ENDTAB
  0
TABLE
  2
STYLE
  5
3
330
0
100
AcDbSymbolTable
 70
     1
  0
STYLE
  5
11
330
3
100
AcDbSymbolTableRecord
100
AcDbTextStyleTableRecord
  2
STANDARD
 70
     0
 40
0.0
 41
1.0
 50
0.0
 71
     0
 42
2.5
  3
txt
  4

  0
ENDTAB
  0
TABLE
  2
VIEW
  5
6
330
0
100
AcDbSymbolTable
 70
     0
  0
ENDTAB
  0
TABLE
  2
UCS
  5
7
330
0
100
AcDbSymbolTable
 70
     0
  0
ENDTAB
  0
TABLE
  2
APPID
  5
9
330
0
100
AcDbSymbolTable
 70
     2
  0
APPID
  5
12
330
9
100
AcDbSymbolTableRecord
100
AcDbRegAppTableRecord
  2
ACAD
 70
     0
  0
ENDTAB
  0
TABLE
  2
DIMSTYLE
  5
A
330
0
100
AcDbSymbolTable
 70
     1
  0
DIMSTYLE
105
27
330
A
100
AcDbSymbolTableRecord
100
AcDbDimStyleTableRecord
  2
ISO-25
 70
     0
  3

  4

  5

  6

  7

 40
1.0
 41
2.5
 42
0.625
 43
3.75
 44
1.25
 45
0.0
 46
0.0
 47
0.0
 48
0.0
140
2.5
141
2.5
142
0.0
143
0.03937007874016
144
1.0
145
0.0
146
1.0
147
0.625
 71
     0
 72
     0
 73
     0
 74
     0
 75
     0
 76
     0
 77
     1
 78
     8
170
     0
171
     3
172
     1
173
     0
174
     0
175
     0
176
     0
177
     0
178
     0
270
     2
271
     2
272
     2
273
     2
274
     3
340
11
275
     0
280
     0
281
     0
282
     0
283
     0
284
     8
285
     0
286
     0
287
     3
288
     0
  0
ENDTAB
  0
TABLE
  2
BLOCK_RECORD
  5
1
330
0
100
AcDbSymbolTable
 70
     1
  0
BLOCK_RECORD
  5
1F
330
1
100
AcDbSymbolTableRecord
100
AcDbBlockTableRecord
  2
*MODEL_SPACE
  0
BLOCK_RECORD
  5
1B
330
1
100
AcDbSymbolTableRecord
100
AcDbBlockTableRecord
  2
*PAPER_SPACE
  0
ENDTAB
  0
ENDSEC
  0
SECTION
  2
BLOCKS
  0
BLOCK
  5
20
330
1F
100
AcDbEntity
  8
0
100
AcDbBlockBegin
  2
*MODEL_SPACE
 70
     0
 10
0.0
 20
0.0
 30
0.0
  3
*MODEL_SPACE
  1

  0
ENDBLK
  5
21
330
1F
100
AcDbEntity
  8
0
100
AcDbBlockEnd
  0
BLOCK
  5
1C
330
1B
100
AcDbEntity
 67
     1
  8
0
100
AcDbBlockBegin
  2
*PAPER_SPACE
  1

  0
ENDBLK
  5
1D
330
1B
100
AcDbEntity
 67
     1
  8
0
100
AcDbBlockEnd
  0
ENDSEC
  0
SECTION
  2
ENTITIES
  0
LWPOLYLINE
  5
100
100
AcDbEntity
  8
0
 62
7
100
AcDbPolyline
 90
3369
 70
0
 10
172.273152
 20
3.354974
 30
0.0
 10
172.079974
 20
3.465606
 30
0.0
 10
171.864226
 20
3.576604
 30
0.0
 10
171.633171
 20
3.685005
 30
0.0
 10
171.394075
 20
3.787819
 30
0.0
 10
171.154197
 20
3.882053
 30
0.0
 10
170.920802
 20
3.964716
 30
0.0
 10
170.701149
 20
4.032816
 30
0.0
 10
170.502504
 20
4.083390
 30
0.0
 10
170.305916
 20
4.136053
 30
0.0
 10
170.092161
 20
4.210164
 30
0.0
 10
169.868091
 20
4.302366
 30
0.0
 10
169.640552
 20
4.409187
 30
0.0
 10
169.416391
 20
4.527241
 30
0.0
 10
169.202461
 20
4.653140
 30
0.0
 10
169.005608
 20
4.783442
 30
0.0
 10
168.832685
 20
4.914760
 30
0.0
 10
168.451265
 20
5.213577
 30
0.0
 10
168.092541
 20
5.453127
 30
0.0
 10
167.727957
 20
5.642103
 30
0.0
 10
167.328966
 20
5.789141
 30
0.0
 10
166.867005
 20
5.902877
 30
0.0
 10
166.313522
 20
5.991946
 30
0.0
 10
165.639964
 20
6.065013
 30
0.0
 10
164.817778
 20
6.130743
 30
0.0
 10
163.729789
 20
6.202794
 30
0.0
 10
162.864916
 20
6.242305
 30
0.0
 10
162.189200
 20
6.245128
 30
0.0
 10
161.668686
 20
6.205729
 30
0.0
 10
161.269423
 20
6.119877
 30
0.0
 10
160.957458
 20
5.983028
 30
0.0
 10
160.698835
 20
5.790524
 30
0.0
 10
160.459598
 20
5.537766
 30
0.0
 10
160.157070
 20
5.243577
 30
0.0
 10
159.780537
 20
4.977950
 30
0.0
 10
159.348376
 20
4.747233
 30
0.0
 10
158.878961
 20
4.557749
 30
0.0
 10
158.390666
 20
4.415932
 30
0.0
 10
157.901866
 20
4.328048
 30
0.0
 10
157.430933
 20
4.300391
 30
0.0
 10
156.996246
 20
4.339535
 30
0.0
 10
156.048575
 20
4.551540
 30
0.0
 10
155.044391
 20
4.843866
 30
0.0
 10
154.040058
 20
5.192269
 30
0.0
 10
153.091938
 20
5.572479
 30
0.0
 10
152.256400
 20
5.960224
 30
0.0
 10
151.589802
 20
6.331262
 30
0.0
 10
151.148511
 20
6.661264
 30
0.0
 10
150.988889
 20
6.926017
 30
0.0
 10
150.957345
 20
7.118634
 30
0.0
 10
150.865950
 20
7.302163
 30
0.0
 10
150.719553
 20
7.473415
 30
0.0
 10
150.523002
 20
7.629145
 30
0.0
 10
150.281155
 20
7.766080
 30
0.0
 10
149.998856
 20
7.881000
 30
0.0
 10
149.680958
 20
7.970691
 30
0.0
 10
149.332315
 20
8.031876
 30
0.0
 10
149.127165
 20
8.060268
 30
0.0
 10
148.877054
 20
8.098904
 30
0.0
 10
148.591657
 20
8.146035
 30
0.0
 10
148.280645
 20
8.199996
 30
0.0
 10
147.953690
 20
8.259037
 30
0.0
 10
147.620471
 20
8.321465
 30
0.0
 10
147.290655
 20
8.385557
 30
0.0
 10
146.973917
 20
8.449594
 30
0.0
 10
146.662518
 20
8.513743
 30
0.0
 10
146.348007
 20
8.578174
 30
0.0
 10
146.038982
 20
8.641110
 30
0.0
 10
145.744043
 20
8.700856
 30
0.0
 10
145.471792
 20
8.755664
 30
0.0
 10
145.230827
 20
8.803782
 30
0.0
 10
145.029747
 20
8.843463
 30
0.0
 10
144.877155
 20
8.873012
 30
0.0
 10
144.726660
 20
8.883454
 30
0.0
 10
144.550409
 20
8.863416
 30
0.0
 10
144.352541
 20
8.814987
 30
0.0
 10
144.137194
 20
8.739662
 30
0.0
 10
143.908509
 20
8.639106
 30
0.0
 10
143.670624
 20
8.514900
 30
0.0
 10
143.427681
 20
8.368737
 30
0.0
 10
143.183822
 20
8.202226
 30
0.0
 10
142.677775
 20
7.862007
 30
0.0
 10
142.198725
 20
7.599427
 30
0.0
 10
141.734021
 20
7.412342
 30
0.0
 10
141.271001
 20
7.298691
 30
0.0
 10
140.797018
 20
7.256302
 30
0.0
 10
140.299409
 20
7.283113
 30
0.0
 10
139.765526
 20
7.377008
 30
0.0
 10
139.182712
 20
7.535871
 30
0.0
 10
138.911090
 20
7.619663
 30
0.0
 10
138.644094
 20
7.700350
 30
0.0
 10
138.388539
 20
7.776014
 30
0.0
 10
138.151241
 20
7.844678
 30
0.0
 10
137.939018
 20
7.904397
 30
0.0
 10
137.758684
 20
7.953221
 30
0.0
 10
137.617053
 20
7.989233
 30
0.0
 10
137.520945
 20
8.010399
 30
0.0
 10
137.447714
 20
8.027333
 30
0.0
 10
137.371650
 20
8.050757
 30
0.0
 10
137.294970
 20
8.079770
 30
0.0
 10
137.219896
 20
8.113269
 30
0.0
 10
137.148646
 20
8.150184
 30
0.0
 10
137.083439
 20
8.189413
 30
0.0
 10
137.026489
 20
8.229940
 30
0.0
 10
136.980021
 20
8.270693
 30
0.0
 10
136.930731
 20
8.310119
 30
0.0
 10
136.865696
 20
8.346921
 30
0.0
 10
136.787701
 20
8.380252
 30
0.0
 10
136.699535
 20
8.409349
 30
0.0
 10
136.603983
 20
8.433338
 30
0.0
 10
136.503825
 20
8.451400
 30
0.0
 10
136.401855
 20
8.462971
 30
0.0
 10
136.300853
 20
8.466922
 30
0.0
 10
136.196742
 20
8.475389
 30
0.0
 10
136.085851
 20
8.499942
 30
0.0
 10
135.971599
 20
8.538804
 30
0.0
 10
135.857392
 20
8.590225
 30
0.0
 10
135.746642
 20
8.652483
 30
0.0
 10
135.642762
 20
8.723829
 30
0.0
 10
135.549157
 20
8.802597
 30
0.0
 10
135.469246
 20
8.887010
 30
0.0
 10
135.394071
 20
8.968262
 30
0.0
 10
135.314041
 20
9.037942
 30
0.0
 10
135.231624
 20
9.094979
 30
0.0
 10
135.149271
 20
9.138272
 30
0.0
 10
135.069445
 20
9.166720
 30
0.0
 10
134.994605
 20
9.179138
 30
0.0
 10
134.927210
 20
9.174622
 30
0.0
 10
134.869716
 20
9.152045
 30
0.0
 10
134.813734
 20
9.135676
 30
0.0
 10
134.750669
 20
9.148940
 30
0.0
 10
134.682676
 20
9.189439
 30
0.0
 10
134.611912
 20
9.254886
 30
0.0
 10
134.540532
 20
9.342968
 30
0.0
 10
134.470688
 20
9.451341
 30
0.0
 10
134.404537
 20
9.577664
 30
0.0
 10
134.344235
 20
9.719650
 30
0.0
 10
134.283820
 20
9.864797
 30
0.0
 10
134.217348
 20
10.000207
 30
0.0
 10
134.146993
 20
10.122917
 30
0.0
 10
134.074936
 20
10.229936
 30
0.0
 10
134.003353
 20
10.318356
 30
0.0
 10
133.934423
 20
10.385186
 30
0.0
 10
133.870325
 20
10.427435
 30
0.0
 10
133.813234
 20
10.442111
 30
0.0
 10
133.759078
 20
10.452271
 30
0.0
 10
133.703387
 20
10.481565
 30
0.0
 10
133.647753
 20
10.527878
 30
0.0
 10
133.593758
 20
10.589148
 30
0.0
 10
133.542998
 20
10.663345
 30
0.0
 10
133.497055
 20
10.748406
 30
0.0
 10
133.457521
 20
10.842245
 30
0.0
 10
133.425983
 20
10.942858
 30
0.0
 10
133.354744
 20
11.076095
 30
0.0
 10
133.207018
 20
11.220141
 30
0.0
 10
132.981274
 20
11.375730
 30
0.0
 10
132.675988
 20
11.543624
 30
0.0
 10
132.289637
 20
11.724641
 30
0.0
 10
131.820691
 20
11.919516
 30
0.0
 10
131.267623
 20
12.129038
 30
0.0
 10
130.628909
 20
12.353969
 30
0.0
 10
129.589282
 20
12.703303
 30
0.0
 10
128.769195
 20
12.959618
 30
0.0
 10
128.128254
 20
13.126383
 30
0.0
 10
127.626062
 20
13.207183
 30
0.0
 10
127.222227
 20
13.204361
 30
0.0
 10
126.876350
 20
13.123758
 30
0.0
 10
126.548041
 20
12.967717
 30
0.0
 10
126.196900
 20
12.739823
 30
0.0
 10
125.710434
 20
12.429463
 30
0.0
 10
125.244614
 20
12.203826
 30
0.0
 10
124.773809
 20
12.062066
 30
0.0
 10
124.272379
 20
12.003308
 30
0.0
 10
123.714696
 20
12.026732
 30
0.0
 10
123.075121
 20
12.131408
 30
0.0
 10
122.328023
 20
12.316546
 30
0.0
 10
121.447763
 20
12.581242
 30
0.0
 10
120.370075
 20
12.942289
 30
0.0
 10
119.477700
 20
13.287136
 30
0.0
 10
118.743719
 20
13.634891
 30
0.0
 10
118.141205
 20
14.004602
 30
0.0
 10
117.643238
 20
14.415433
 30
0.0
 10
117.222888
 20
14.886433
 30
0.0
 10
116.853236
 20
15.436710
 30
0.0
 10
116.507359
 20
16.085367
 30
0.0
 10
116.350768
 20
16.397392
 30
0.0
 10
116.195537
 20
16.688843
 30
0.0
 10
116.045717
 20
16.953372
 30
0.0
 10
115.905359
 20
17.184569
 30
0.0
 10
115.778514
 20
17.375972
 30
0.0
 10
115.669238
 20
17.521229
 30
0.0
 10
115.581574
 20
17.613885
 30
0.0
 10
115.519581
 20
17.647580
 30
0.0
 10
115.460058
 20
17.656893
 30
0.0
 10
115.379472
 20
17.679471
 30
0.0
 10
115.281380
 20
17.713792
 30
0.0
 10
115.169338
 20
17.758437
 30
0.0
 10
115.046904
 20
17.811892
 30
0.0
 10
114.917626
 20
17.872683
 30
0.0
 10
114.785067
 20
17.939372
 30
0.0
 10
114.652778
 20
18.010405
 30
0.0
 10
114.525219
 20
18.077461
 30
0.0
 10
114.406220
 20
18.132720
 30
0.0
 10
114.298380
 20
18.175451
 30
0.0
 10
114.204310
 20
18.204997
 30
0.0
 10
114.126608
 20
18.220519
 30
0.0
 10
114.067884
 20
18.220519
 30
0.0
 10
114.030737
 20
18.206408
 30
0.0
 10
114.017783
 20
18.176323
 30
0.0
 10
114.010559
 20
18.145022
 30
0.0
 10
113.989872
 20
18.127524
 30
0.0
 10
113.957182
 20
18.123009
 30
0.0
 10
113.913928
 20
18.131475
 30
0.0
 10
113.861562
 20
18.152360
 30
0.0
 10
113.801531
 20
18.185016
 30
0.0
 10
113.735287
 20
18.229124
 30
0.0
 10
113.664280
 20
18.284273
 30
0.0
 10
113.563789
 20
18.354826
 30
0.0
 10
113.413046
 20
18.443105
 30
0.0
 10
113.219425
 20
18.545580
 30
0.0
 10
112.990300
 20
18.658697
 30
0.0
 10
112.733046
 20
18.778952
 30
0.0
 10
112.455037
 20
18.902791
 30
0.0
 10
112.163648
 20
19.026656
 30
0.0
 10
111.866257
 20
19.147024
 30
0.0
 10
111.428970
 20
19.315316
 30
0.0
 10
111.076607
 20
19.438506
 30
0.0
 10
110.792737
 20
19.517810
 30
0.0
 10
110.560922
 20
19.554443
 30
0.0
 10
110.364727
 20
19.549645
 30
0.0
 10
110.187715
 20
19.504633
 30
0.0
 10
110.013451
 20
19.420585
 30
0.0
 10
109.825502
 20
19.298808
 30
0.0
 10
109.388419
 20
19.055702
 30
0.0
 10
108.873310
 20
18.875670
 30
0.0
 10
108.298996
 20
18.759284
 30
0.0
 10
107.684308
 20
18.707127
 30
0.0
 10
107.048071
 20
18.719827
 30
0.0
 10
106.409109
 20
18.797946
 30
0.0
 10
105.786250
 20
18.942105
 30
0.0
 10
105.198319
 20
19.152871
 30
0.0
 10
104.929031
 20
19.266607
 30
0.0
 10
104.677805
 20
19.367106
 30
0.0
 10
104.450148
 20
19.452645
 30
0.0
 10
104.251551
 20
19.521369
 30
0.0
 10
104.087518
 20
19.571517
 30
0.0
 10
103.963541
 20
19.601235
 30
0.0
 10
103.885125
 20
19.608855
 30
0.0
 10
103.857778
 20
19.592486
 30
0.0
 10
103.844824
 20
19.571319
 30
0.0
 10
103.807678
 20
19.565393
 30
0.0
 10
103.748953
 20
19.573859
 30
0.0
 10
103.671251
 20
19.596155
 30
0.0
 10
103.577181
 20
19.631066
 30
0.0
 10
103.469341
 20
19.677833
 30
0.0
 10
103.350342
 20
19.735547
 30
0.0
 10
103.222783
 20
19.803391
 30
0.0
 10
103.091420
 20
19.873074
 30
0.0
 10
102.961513
 20
19.936038
 30
0.0
 10
102.836435
 20
19.991071
 30
0.0
 10
102.719550
 20
20.036932
 30
0.0
 10
102.614233
 20
20.072377
 30
0.0
 10
102.523846
 20
20.096083
 30
0.0
 10
102.451766
 20
20.107090
 30
0.0
 10
102.401356
 20
20.103986
 30
0.0
 10
102.201466
 20
20.170536
 30
0.0
 10
101.900513
 20
20.415418
 30
0.0
 10
101.535241
 20
20.792808
 30
0.0
 10
101.142399
 20
21.256807
 30
0.0
 10
100.758732
 20
21.761649
 30
0.0
 10
100.420991
 20
22.261408
 30
0.0
 10
100.165916
 20
22.710254
 30
0.0
 10
100.030260
 20
23.062383
 30
0.0
 10
99.883603
 20
23.690017
 30
0.0
 10
99.740037
 20
24.192626
 30
0.0
 10
99.581332
 20
24.595750
 30
0.0
 10
99.389263
 20
24.924880
 30
0.0
 10
99.145601
 20
25.205550
 30
0.0
 10
98.832122
 20
25.463219
 30
0.0
 10
98.430599
 20
25.723428
 30
0.0
 10
97.922805
 20
26.011659
 30
0.0
 10
97.607193
 20
26.186891
 30
0.0
 10
97.302179
 20
26.360573
 30
0.0
 10
97.015190
 20
26.528100
 30
0.0
 10
96.753660
 20
26.685013
 30
0.0
 10
96.525024
 20
26.826745
 30
0.0
 10
96.336711
 20
26.948752
 30
0.0
 10
96.196153
 20
27.046568
 30
0.0
 10
96.110783
 20
27.115630
 30
0.0
 10
95.918483
 20
27.228688
 30
0.0
 10
95.634226
 20
27.307880
 30
0.0
 10
95.290888
 20
27.353515
 30
0.0
 10
94.921355
 20
27.365933
 30
0.0
 10
94.558505
 20
27.345613
 30
0.0
 10
94.235225
 20
27.292781
 30
0.0
 10
93.984394
 20
27.207804
 30
0.0
 10
93.838895
 20
27.091077
 30
0.0
 10
93.607605
 20
26.913105
 30
0.0
 10
93.202133
 20
26.811959
 30
0.0
 10
92.651896
 20
26.784301
 30
0.0
 10
91.986312
 20
26.827227
 30
0.0
 10
91.234799
 20
26.937466
 30
0.0
 10
90.426780
 20
27.111795
 30
0.0
 10
89.591673
 20
27.347027
 30
0.0
 10
88.758895
 20
27.640027
 30
0.0
 10
87.736037
 20
28.067456
 30
0.0
 10
86.901822
 20
28.486838
 30
0.0
 10
86.236596
 20
28.919823
 30
0.0
 10
85.720699
 20
29.388055
 30
0.0
 10
85.334469
 20
29.913189
 30
0.0
 10
85.058256
 20
30.516860
 30
0.0
 10
84.872393
 20
31.220722
 30
0.0
 10
84.757229
 20
32.046419
 30
0.0
 10
84.706471
 20
32.491289
 30
0.0
 10
84.644120
 20
32.881374
 30
0.0
 10
84.567426
 20
33.224361
 30
0.0
 10
84.473641
 20
33.527863
 30
0.0
 10
84.360012
 20
33.799474
 30
0.0
 10
84.223792
 20
34.046839
 30
0.0
 10
84.062234
 20
34.277558
 30
0.0
 10
83.872584
 20
34.499272
 30
0.0
 10
83.722131
 20
34.655169
 30
0.0
 10
83.571546
 20
34.800629
 30
0.0
 10
83.424852
 20
34.932424
 30
0.0
 10
83.286078
 20
35.047404
 30
0.0
 10
83.159250
 20
35.142372
 30
0.0
 10
83.048399
 20
35.214141
 30
0.0
 10
82.957546
 20
35.259548
 30
0.0
 10
82.890721
 20
35.275352
 30
0.0
 10
82.821105
 20
35.290028
 30
0.0
 10
82.722252
 20
35.332333
 30
0.0
 10
82.598745
 20
35.399219
 30
0.0
 10
82.455176
 20
35.487699
 30
0.0
 10
82.296135
 20
35.594828
 30
0.0
 10
82.126209
 20
35.717651
 30
0.0
 10
81.949984
 20
35.853174
 30
0.0
 10
81.772052
 20
35.998434
 30
0.0
 10
81.522319
 20
36.198927
 30
0.0
 10
81.297063
 20
36.355617
 30
0.0
 10
81.085794
 20
36.471582
 30
0.0
 10
80.878025
 20
36.549814
 30
0.0
 10
80.663268
 20
36.593302
 30
0.0
 10
80.431033
 20
36.605155
 30
0.0
 10
80.170836
 20
36.588222
 30
0.0
 10
79.872182
 20
36.545750
 30
0.0
 10
79.167950
 20
36.444486
 30
0.0
 10
78.511606
 20
36.389399
 30
0.0
 10
77.889171
 20
36.382061
 30
0.0
 10
77.286671
 20
36.423999
 30
0.0
 10
76.690135
 20
36.516794
 30
0.0
 10
76.085587
 20
36.661997
 30
0.0
 10
75.459051
 20
36.861246
 30
0.0
 10
74.796554
 20
37.116034
 30
0.0
 10
73.716134
 20
37.607216
 30
0.0
 10
72.813940
 20
38.117756
 30
0.0
 10
72.083264
 20
38.655954
 30
0.0
 10
71.517397
 20
39.229963
 30
0.0
 10
71.109626
 20
39.848004
 30
0.0
 10
70.853244
 20
40.518335
 30
0.0
 10
70.741540
 20
41.249093
 30
0.0
 10
70.767815
 20
42.048572
 30
0.0
 10
70.837174
 20
42.735812
 30
0.0
 10
70.865283
 20
43.283662
 30
0.0
 10
70.838698
 20
43.727882
 30
0.0
 10
70.743953
 20
44.104282
 30
0.0
 10
70.567581
 20
44.448678
 30
0.0
 10
70.296120
 20
44.796799
 30
0.0
 10
69.916105
 20
45.184516
 30
0.0
 10
69.414074
 20
45.647558
 30
0.0
 10
68.840511
 20
46.150560
 30
0.0
 10
68.346131
 20
46.544178
 30
0.0
 10
67.907987
 20
46.837745
 30
0.0
 10
67.503136
 20
47.040550
 30
0.0
 10
67.108634
 20
47.161934
 30
0.0
 10
66.701537
 20
47.211122
 30
0.0
 10
66.258900
 20
47.197576
 30
0.0
 10
65.757781
 20
47.130410
 30
0.0
 10
65.482323
 20
47.101143
 30
0.0
 10
65.172929
 20
47.101143
 30
0.0
 10
64.825437
 20
47.132157
 30
0.0
 10
64.435694
 20
47.194528
 30
0.0
 10
63.999545
 20
47.289047
 30
0.0
 10
63.512835
 20
47.416442
 30
0.0
 10
62.971412
 20
47.577560
 30
0.0
 10
62.371114
 20
47.773171
 30
0.0
 10
61.710595
 20
48.004393
 30
0.0
 10
61.146114
 20
48.221930
 30
0.0
 10
60.662278
 20
48.434446
 30
0.0
 10
60.243689
 20
48.650653
 30
0.0
 10
59.874949
 20
48.879256
 30
0.0
 10
59.540668
 20
49.128964
 30
0.0
 10
59.225448
 20
49.408451
 30
0.0
 10
58.913892
 20
49.726400
 30
0.0
 10
58.612989
 20
50.061993
 30
0.0
 10
58.373205
 20
50.357734
 30
0.0
 10
58.188067
 20
50.628187
 30
0.0
 10
58.051105
 20
50.888001
 30
0.0
 10
57.955846
 20
51.151738
 30
0.0
 10
57.895815
 20
51.433960
 30
0.0
 10
57.864544
 20
51.749315
 30
0.0
 10
57.855570
 20
52.112366
 30
0.0
 10
57.863274
 20
52.380559
 30
0.0
 10
57.885372
 20
52.666563
 30
0.0
 10
57.920314
 20
52.961629
 30
0.0
 10
57.966545
 20
53.256859
 30
0.0
 10
58.022521
 20
53.543458
 30
0.0
 10
58.086684
 20
53.812611
 30
0.0
 10
58.157491
 20
54.055494
 30
0.0
 10
58.233389
 20
54.263294
 30
0.0
 10
58.387883
 20
54.668732
 30
0.0
 10
58.473535
 20
55.015868
 30
0.0
 10
58.477994
 20
55.333396
 30
0.0
 10
58.388944
 20
55.650106
 30
0.0
 10
58.194030
 20
55.994725
 30
0.0
 10
57.880913
 20
56.395963
 30
0.0
 10
57.437251
 20
56.882627
 30
0.0
 10
56.850706
 20
57.483390
 30
0.0
 10
56.387393
 20
57.943554
 30
0.0
 10
56.006560
 20
58.299044
 30
0.0
 10
55.683333
 20
58.563204
 30
0.0
 10
55.392851
 20
58.749386
 30
0.0
 10
55.110242
 20
58.870939
 30
0.0
 10
54.810640
 20
58.941238
 30
0.0
 10
54.469180
 20
58.973637
 30
0.0
 10
54.060990
 20
58.981539
 30
0.0
 10
53.779155
 20
58.990006
 30
0.0
 10
53.477612
 20
59.013994
 30
0.0
 10
53.165722
 20
59.051815
 30
0.0
 10
52.852845
 20
59.101853
 30
0.0
 10
52.548344
 20
59.162446
 30
0.0
 10
52.261581
 20
59.231901
 30
0.0
 10
52.001914
 20
59.308522
 30
0.0
 10
51.778704
 20
59.390676
 30
0.0
 10
51.582103
 20
59.470545
 30
0.0
 10
51.398689
 20
59.540652
 30
0.0
 10
51.232480
 20
59.599721
 30
0.0
 10
51.087488
 20
59.646567
 30
0.0
 10
50.967730
 20
59.679985
 30
0.0
 10
50.877219
 20
59.698612
 30
0.0
 10
50.819967
 20
59.701434
 30
0.0
 10
50.799986
 20
59.687323
 30
0.0
 10
50.704637
 20
59.648433
 30
0.0
 10
50.446644
 20
59.715856
 30
0.0
 10
50.068071
 20
59.868479
 30
0.0
 10
49.610995
 20
60.085225
 30
0.0
 10
49.117481
 20
60.344983
 30
0.0
 10
48.629607
 20
60.626700
 30
0.0
 10
48.189436
 20
60.909289
 30
0.0
 10
47.839046
 20
61.171612
 30
0.0
 10
47.297309
 20
61.688756
 30
0.0
 10
46.878618
 20
62.231187
 30
0.0
 10
46.581057
 20
62.809347
 30
0.0
 10
46.402710
 20
63.433685
 30
0.0
 10
46.341654
 20
64.114653
 30
0.0
 10
46.395979
 20
64.862689
 30
0.0
 10
46.563768
 20
65.688242
 30
0.0
 10
46.843101
 20
66.601765
 30
0.0
 10
46.910631
 20
66.795792
 30
0.0
 10
46.978161
 20
66.989823
 30
0.0
 10
47.045691
 20
67.183851
 30
0.0
 10
47.113221
 20
67.377876
 30
0.0
 10
47.180754
 20
67.571904
 30
0.0
 10
47.248284
 20
67.765931
 30
0.0
 10
47.315814
 20
67.959962
 30
0.0
 10
47.383344
 20
68.153990
 30
0.0
 10
47.300422
 20
68.277462
 30
0.0
 10
47.217499
 20
68.400931
 30
0.0
 10
47.134577
 20
68.524404
 30
0.0
 10
47.051654
 20
68.647876
 30
0.0
 10
46.968735
 20
68.771351
 30
0.0
 10
46.885812
 20
68.894823
 30
0.0
 10
46.802889
 20
69.018292
 30
0.0
 10
46.719967
 20
69.141765
 30
0.0
 10
46.191921
 20
69.904033
 30
0.0
 10
45.722735
 20
70.522839
 30
0.0
 10
45.295196
 20
71.012091
 30
0.0
 10
44.892101
 20
71.385688
 30
0.0
 10
44.496242
 20
71.657533
 30
0.0
 10
44.090407
 20
71.841528
 30
0.0
 10
43.657390
 20
71.951575
 30
0.0
 10
43.179986
 20
72.001573
 30
0.0
 10
42.918256
 20
72.018958
 30
0.0
 10
42.661304
 20
72.044781
 30
0.0
 10
42.415666
 20
72.077770
 30
0.0
 10
42.187879
 20
72.116692
 30
0.0
 10
41.984481
 20
72.160284
 30
0.0
 10
41.812010
 20
72.207293
 30
0.0
 10
41.677006
 20
72.256485
 30
0.0
 10
41.586003
 20
72.306591
 30
0.0
 10
41.509939
 20
72.357557
 30
0.0
 10
41.417745
 20
72.409187
 30
0.0
 10
41.312959
 20
72.460069
 30
0.0
 10
41.199119
 20
72.508772
 30
0.0
 10
41.079756
 20
72.553876
 30
0.0
 10
40.958409
 20
72.593966
 30
0.0
 10
40.838614
 20
72.627610
 30
0.0
 10
40.723907
 20
72.653405
 30
0.0
 10
40.320533
 20
72.751271
 30
0.0
 10
39.888137
 20
72.892738
 30
0.0
 10
39.438422
 20
73.072000
 30
0.0
 10
38.983079
 20
73.283252
 30
0.0
 10
38.533807
 20
73.520705
 30
0.0
 10
38.102300
 20
73.778543
 30
0.0
 10
37.700252
 20
74.050972
 30
0.0
 10
37.339360
 20
74.332193
 30
0.0
 10
37.104142
 20
74.544252
 30
0.0
 10
36.903437
 20
74.756830
 30
0.0
 10
36.734047
 20
74.975902
 30
0.0
 10
36.592772
 20
75.207443
 30
0.0
 10
36.476418
 20
75.457430
 30
0.0
 10
36.381780
 20
75.731845
 30
0.0
 10
36.305668
 20
76.036668
 30
0.0
 10
36.244880
 20
76.377863
 30
0.0
 10
36.201175
 20
76.874487
 30
0.0
 10
36.207581
 20
77.413870
 30
0.0
 10
36.259793
 20
77.974798
 30
0.0
 10
36.353479
 20
78.536059
 30
0.0
 10
36.484314
 20
79.076436
 30
0.0
 10
36.647975
 20
79.574716
 30
0.0
 10
36.840137
 20
80.009680
 30
0.0
 10
37.056478
 20
80.360121
 30
0.0
 10
37.106112
 20
80.430987
 30
0.0
 10
37.145093
 20
80.497097
 30
0.0
 10
37.173089
 20
80.557010
 30
0.0
 10
37.189768
 20
80.609269
 30
0.0
 10
37.194820
 20
80.652441
 30
0.0
 10
37.187906
 20
80.685066
 30
0.0
 10
37.168686
 20
80.705696
 30
0.0
 10
37.136832
 20
80.712893
 30
0.0
 10
37.105796
 20
80.724577
 30
0.0
 10
37.088919
 20
80.758026
 30
0.0
 10
37.085702
 20
80.810908
 30
0.0
 10
37.095664
 20
80.880885
 30
0.0
 10
37.118298
 20
80.965603
 30
0.0
 10
37.153108
 20
81.062716
 30
0.0
 10
37.199607
 20
81.169884
 30
0.0
 10
37.257296
 20
81.284757
 30
0.0
 10
37.333544
 20
81.452171
 30
0.0
 10
37.378849
 20
81.618868
 30
0.0
 10
37.391662
 20
81.792791
 30
0.0
 10
37.370439
 20
81.981880
 30
0.0
 10
37.313656
 20
82.194065
 30
0.0
 10
37.219755
 20
82.437302
 30
0.0
 10
37.087195
 20
82.719510
 30
0.0
 10
36.914432
 20
83.048646
 30
0.0
 10
36.781204
 20
83.290979
 30
0.0
 10
36.651345
 20
83.522627
 30
0.0
 10
36.528096
 20
83.738112
 30
0.0
 10
36.414699
 20
83.931973
 30
0.0
 10
36.314394
 20
84.098735
 30
0.0
 10
36.230419
 20
84.232940
 30
0.0
 10
36.166019
 20
84.329116
 30
0.0
 10
36.124444
 20
84.384449
 30
0.0
 10
36.089985
 20
84.423881
 30
0.0
 10
36.046023
 20
84.482092
 30
0.0
 10
35.994363
 20
84.556274
 30
0.0
 10
35.936815
 20
84.643625
 30
0.0
 10
35.875183
 20
84.741336
 30
0.0
 10
35.811274
 20
84.846607
 30
0.0
 10
35.746899
 20
84.956629
 30
0.0
 10
35.683862
 20
85.068592
 30
0.0
 10
35.607077
 20
85.179900
 30
0.0
 10
35.503304
 20
85.288048
 30
0.0
 10
35.377109
 20
85.390359
 30
0.0
 10
35.233062
 20
85.484153
 30
0.0
 10
35.075732
 20
85.566762
 30
0.0
 10
34.909695
 20
85.635509
 30
0.0
 10
34.739512
 20
85.687720
 30
0.0
 10
34.569758
 20
85.720714
 30
0.0
 10
34.374133
 20
85.754211
 30
0.0
 10
34.129805
 20
85.807850
 30
0.0
 10
33.846544
 20
85.878858
 30
0.0
 10
33.534116
 20
85.964456
 30
0.0
 10
33.202290
 20
86.061873
 30
0.0
 10
32.860838
 20
86.168327
 30
0.0
 10
32.519524
 20
86.281052
 30
0.0
 10
32.188119
 20
86.397272
 30
0.0
 10
31.866710
 20
86.512542
 30
0.0
 10
31.554050
 20
86.622567
 30
0.0
 10
31.257895
 20
86.724748
 30
0.0
 10
30.986008
 20
86.816507
 30
0.0
 10
30.746147
 20
86.895256
 30
0.0
 10
30.546068
 20
86.958406
 30
0.0
 10
30.393536
 20
87.003381
 30
0.0
 10
30.296307
 20
87.027595
 30
0.0
 10
29.985180
 20
87.160107
 30
0.0
 10
29.593952
 20
87.433795
 30
0.0
 10
29.155398
 20
87.813940
 30
0.0
 10
28.702296
 20
88.265808
 30
0.0
 10
28.267423
 20
88.754685
 30
0.0
 10
27.883557
 20
89.245836
 30
0.0
 10
27.583476
 20
89.704544
 30
0.0
 10
27.399957
 20
90.096076
 30
0.0
 10
27.311825
 20
90.403783
 30
0.0
 10
27.262606
 20
90.704573
 30
0.0
 10
27.257283
 20
91.027850
 30
0.0
 10
27.300842
 20
91.403010
 30
0.0
 10
27.398267
 20
91.859460
 30
0.0
 10
27.554542
 20
92.426588
 30
0.0
 10
27.774650
 20
93.133806
 30
0.0
 10
28.063576
 20
94.010501
 30
0.0
 10
28.186639
 20
94.378271
 30
0.0
 10
28.309703
 20
94.746037
 30
0.0
 10
28.432766
 20
95.113807
 30
0.0
 10
28.555829
 20
95.481573
 30
0.0
 10
28.678892
 20
95.849343
 30
0.0
 10
28.801955
 20
96.217106
 30
0.0
 10
28.925018
 20
96.584879
 30
0.0
 10
29.048081
 20
96.952642
 30
0.0
 10
28.941607
 20
97.163728
 30
0.0
 10
28.835133
 20
97.374816
 30
0.0
 10
28.728659
 20
97.585901
 30
0.0
 10
28.622185
 20
97.796984
 30
0.0
 10
28.515711
 20
98.008072
 30
0.0
 10
28.409237
 20
98.219157
 30
0.0
 10
28.302763
 20
98.430239
 30
0.0
 10
28.196289
 20
98.641327
 30
0.0
 10
28.021178
 20
98.980708
 30
0.0
 10
27.850078
 20
99.297647
 30
0.0
 10
27.687284
 20
99.585169
 30
0.0
 10
27.537096
 20
99.836316
 30
0.0
 10
27.403812
 20
100.044144
 30
0.0
 10
27.291729
 20
100.201678
 30
0.0
 10
27.205145
 20
100.301963
 30
0.0
 10
27.148360
 20
100.338045
 30
0.0
 10
27.059998
 20
100.355909
 30
0.0
 10
26.882916
 20
100.403980
 30
0.0
 10
26.627756
 20
100.478961
 30
0.0
 10
26.305163
 20
100.577558
 30
0.0
 10
25.925781
 20
100.696475
 30
0.0
 10
25.500253
 20
100.832408
 30
0.0
 10
25.039222
 20
100.982059
 30
0.0
 10
24.553333
 20
101.142121
 30
0.0
 10
23.223633
 20
101.645213
 30
0.0
 10
22.127597
 20
102.197629
 30
0.0
 10
21.260397
 20
102.805745
 30
0.0
 10
20.617207
 20
103.475932
 30
0.0
 10
20.193198
 20
104.214556
 30
0.0
 10
19.983543
 20
105.027999
 30
0.0
 10
19.983416
 20
105.922635
 30
0.0
 10
20.187987
 20
106.904825
 30
0.0
 10
20.267946
 20
107.177235
 30
0.0
 10
20.344033
 20
107.442504
 30
0.0
 10
20.414477
 20
107.694029
 30
0.0
 10
20.477507
 20
107.925211
 30
0.0
 10
20.531349
 20
108.129444
 30
0.0
 10
20.574233
 20
108.300129
 30
0.0
 10
20.604385
 20
108.430665
 30
0.0
 10
20.620034
 20
108.514451
 30
0.0
 10
20.634066
 20
108.582667
 30
0.0
 10
20.659582
 20
108.668573
 30
0.0
 10
20.695136
 20
108.768703
 30
0.0
 10
20.739281
 20
108.879576
 30
0.0
 10
20.790570
 20
108.997732
 30
0.0
 10
20.847556
 20
109.119685
 30
0.0
 10
20.908791
 20
109.241972
 30
0.0
 10
20.972830
 20
109.361118
 30
0.0
 10
21.036701
 20
109.477382
 30
0.0
 10
21.097456
 20
109.591417
 30
0.0
 10
21.153682
 20
109.700324
 30
0.0
 10
21.203965
 20
109.801213
 30
0.0
 10
21.246892
 20
109.891179
 30
0.0
 10
21.281050
 20
109.967348
 30
0.0
 10
21.305025
 20
110.026810
 30
0.0
 10
21.317403
 20
110.066676
 30
0.0
 10
21.330329
 20
110.119325
 30
0.0
 10
21.355870
 20
110.215427
 30
0.0
 10
21.392502
 20
110.349522
 30
0.0
 10
21.438704
 20
110.516135
 30
0.0
 10
21.492951
 20
110.709819
 30
0.0
 10
21.553721
 20
110.925098
 30
0.0
 10
21.619490
 20
111.156511
 30
0.0
 10
21.688736
 20
111.398604
 30
0.0
 10
21.781532
 20
111.748063
 30
0.0
 10
21.844981
 20
112.059425
 30
0.0
 10
21.878372
 20
112.348254
 30
0.0
 10
21.880997
 20
112.630098
 30
0.0
 10
21.852131
 20
112.920516
 30
0.0
 10
21.791065
 20
113.235058
 30
0.0
 10
21.697088
 20
113.589275
 30
0.0
 10
21.569484
 20
113.998732
 30
0.0
 10
21.382866
 20
114.551396
 30
0.0
 10
21.210599
 20
114.979677
 30
0.0
 10
21.022138
 20
115.309840
 30
0.0
 10
20.786935
 20
115.568158
 30
0.0
 10
20.474444
 20
115.780900
 30
0.0
 10
20.054119
 20
115.974344
 30
0.0
 10
19.495414
 20
116.174758
 30
0.0
 10
18.767781
 20
116.408413
 30
0.0
 10
18.418533
 20
116.523170
 30
0.0
 10
18.075135
 20
116.644927
 30
0.0
 10
17.746361
 20
116.769959
 30
0.0
 10
17.440983
 20
116.894552
 30
0.0
 10
17.167774
 20
117.014999
 30
0.0
 10
16.935508
 20
117.127574
 30
0.0
 10
16.752956
 20
117.228571
 30
0.0
 10
16.628892
 20
117.314267
 30
0.0
 10
16.535006
 20
117.389076
 30
0.0
 10
16.438945
 20
117.458867
 30
0.0
 10
16.343418
 20
117.522107
 30
0.0
 10
16.251133
 20
117.577281
 30
0.0
 10
16.164797
 20
117.622852
 30
0.0
 10
16.087120
 20
117.657291
 30
0.0
 10
16.020810
 20
117.679079
 30
0.0
 10
15.968575
 20
117.686671
 30
0.0
 10
15.823563
 20
117.739523
 30
0.0
 10
15.636855
 20
117.882364
 30
0.0
 10
15.427093
 20
118.091631
 30
0.0
 10
15.212919
 20
118.343755
 30
0.0
 10
15.012975
 20
118.615165
 30
0.0
 10
14.845904
 20
118.882294
 30
0.0
 10
14.730348
 20
119.121576
 30
0.0
 10
14.684948
 20
119.309449
 30
0.0
 10
14.676495
 20
119.380315
 30
0.0
 10
14.655918
 20
119.446422
 30
0.0
 10
14.624572
 20
119.506332
 30
0.0
 10
14.583816
 20
119.558594
 30
0.0
 10
14.535008
 20
119.601766
 30
0.0
 10
14.479506
 20
119.634388
 30
0.0
 10
14.418669
 20
119.655018
 30
0.0
 10
14.353853
 20
119.662215
 30
0.0
 10
14.193590
 20
119.787017
 30
0.0
 10
14.123951
 20
120.135474
 30
0.0
 10
14.138203
 20
120.668636
 30
0.0
 10
14.229613
 20
121.347576
 30
0.0
 10
14.391448
 20
122.133339
 30
0.0
 10
14.616976
 20
122.986993
 30
0.0
 10
14.899463
 20
123.869601
 30
0.0
 10
15.232179
 20
124.742215
 30
0.0
 10
15.409056
 20
125.168749
 30
0.0
 10
15.574007
 20
125.569262
 30
0.0
 10
15.723426
 20
125.934796
 30
0.0
 10
15.853707
 20
126.256408
 30
0.0
 10
15.961245
 20
126.525140
 30
0.0
 10
16.042433
 20
126.732043
 30
0.0
 10
16.093665
 20
126.868173
 30
0.0
 10
16.111335
 20
126.924569
 30
0.0
 10
16.118916
 20
126.956502
 30
0.0
 10
16.141217
 20
127.022523
 30
0.0
 10
16.176662
 20
127.118583
 30
0.0
 10
16.223675
 20
127.240664
 30
0.0
 10
16.280679
 20
127.384713
 30
0.0
 10
16.346098
 20
127.546708
 30
0.0
 10
16.418354
 20
127.722612
 30
0.0
 10
16.495871
 20
127.908384
 30
0.0
 10
16.569753
 20
128.103208
 30
0.0
 10
16.629767
 20
128.300812
 30
0.0
 10
16.675269
 20
128.496002
 30
0.0
 10
16.705614
 20
128.683578
 30
0.0
 10
16.720160
 20
128.858350
 30
0.0
 10
16.718269
 20
129.015108
 30
0.0
 10
16.699281
 20
129.148661
 30
0.0
 10
16.662561
 20
129.253808
 30
0.0
 10
16.614766
 20
129.360341
 30
0.0
 10
16.562968
 20
129.499734
 30
0.0
 10
16.508815
 20
129.666076
 30
0.0
 10
16.453958
 20
129.853451
 30
0.0
 10
16.400045
 20
130.055957
 30
0.0
 10
16.348726
 20
130.267677
 30
0.0
 10
16.301650
 20
130.482703
 30
0.0
 10
16.260465
 20
130.695120
 30
0.0
 10
16.195964
 20
131.011003
 30
0.0
 10
16.118455
 20
131.263521
 30
0.0
 10
16.011497
 20
131.466735
 30
0.0
 10
15.858644
 20
131.634717
 30
0.0
 10
15.643455
 20
131.781517
 30
0.0
 10
15.349484
 20
131.921212
 30
0.0
 10
14.960290
 20
132.067857
 30
0.0
 10
14.459429
 20
132.235523
 30
0.0
 10
14.125238
 20
132.348714
 30
0.0
 10
13.795861
 20
132.468729
 30
0.0
 10
13.479765
 20
132.591896
 30
0.0
 10
13.185420
 20
132.714567
 30
0.0
 10
12.921291
 20
132.833083
 30
0.0
 10
12.695848
 20
132.943785
 30
0.0
 10
12.517558
 20
133.043014
 30
0.0
 10
12.394889
 20
133.127125
 30
0.0
 10
12.302321
 20
133.197559
 30
0.0
 10
12.210304
 20
133.257607
 30
0.0
 10
12.121255
 20
133.306364
 30
0.0
 10
12.037594
 20
133.342915
 30
0.0
 10
11.961739
 20
133.366339
 30
0.0
 10
11.896108
 20
133.375765
 30
0.0
 10
11.843121
 20
133.370234
 30
0.0
 10
11.805196
 20
133.348870
 30
0.0
 10
11.765920
 20
133.331598
 30
0.0
 10
11.709064
 20
133.337835
 30
0.0
 10
11.637316
 20
133.365831
 30
0.0
 10
11.553367
 20
133.413863
 30
0.0
 10
11.459907
 20
133.480185
 30
0.0
 10
11.359625
 20
133.563068
 30
0.0
 10
11.255212
 20
133.660776
 30
0.0
 10
11.149358
 20
133.771579
 30
0.0
 10
11.051305
 20
133.885312
 30
0.0
 10
10.969252
 20
133.991413
 30
0.0
 10
10.904321
 20
134.087567
 30
0.0
 10
10.857634
 20
134.171443
 30
0.0
 10
10.830312
 20
134.240720
 30
0.0
 10
10.823480
 20
134.293078
 30
0.0
 10
10.838257
 20
134.326200
 30
0.0
 10
10.875767
 20
134.337742
 30
0.0
 10
10.913612
 20
134.345137
 30
0.0
 10
10.929349
 20
134.366360
 30
0.0
 10
10.924031
 20
134.399905
 30
0.0
 10
10.898716
 20
134.444281
 30
0.0
 10
10.854457
 20
134.498011
 30
0.0
 10
10.792308
 20
134.559600
 30
0.0
 10
10.713326
 20
134.627571
 30
0.0
 10
10.618565
 20
134.700426
 30
0.0
 10
10.295977
 20
135.066790
 30
0.0
 10
10.082687
 20
135.594376
 30
0.0
 10
9.976867
 20
136.254796
 30
0.0
 10
9.976689
 20
137.019669
 30
0.0
 10
10.080323
 20
137.860598
 30
0.0
 10
10.285941
 20
138.749203
 30
0.0
 10
10.591714
 20
139.657098
 30
0.0
 10
10.995813
 20
140.555894
 30
0.0
 10
11.044371
 20
140.661468
 30
0.0
 10
11.097598
 20
140.796045
 30
0.0
 10
11.153763
 20
140.954101
 30
0.0
 10
11.211133
 20
141.130117
 30
0.0
 10
11.267977
 20
141.318560
 30
0.0
 10
11.322563
 20
141.513911
 30
0.0
 10
11.373159
 20
141.710634
 30
0.0
 10
11.418034
 20
141.903214
 30
0.0
 10
11.473456
 20
142.104862
 30
0.0
 10
11.554282
 20
142.327597
 30
0.0
 10
11.656659
 20
142.564060
 30
0.0
 10
11.776738
 20
142.806901
 30
0.0
 10
11.910666
 20
143.048780
 30
0.0
 10
12.054591
 20
143.282338
 30
0.0
 10
12.204664
 20
143.500228
 30
0.0
 10
12.357031
 20
143.695105
 30
0.0
 10
12.614502
 20
144.036555
 30
0.0
 10
12.813809
 20
144.386524
 30
0.0
 10
12.956720
 20
144.757178
 30
0.0
 10
13.045001
 20
145.160702
 30
0.0
 10
13.080419
 20
145.609255
 30
0.0
 10
13.064741
 20
146.115023
 30
0.0
 10
12.999736
 20
146.690169
 30
0.0
 10
12.887169
 20
147.346866
 30
0.0
 10
12.820921
 20
147.648742
 30
0.0
 10
12.744589
 20
147.892991
 30
0.0
 10
12.647833
 20
148.089819
 30
0.0
 10
12.520320
 20
148.249424
 30
0.0
 10
12.351714
 20
148.382006
 30
0.0
 10
12.131676
 20
148.497763
 30
0.0
 10
11.849874
 20
148.606892
 30
0.0
 10
11.495966
 20
148.719592
 30
0.0
 10
10.827322
 20
148.929712
 30
0.0
 10
10.268347
 20
149.130669
 30
0.0
 10
9.799741
 20
149.334520
 30
0.0
 10
9.402205
 20
149.553339
 30
0.0
 10
9.056441
 20
149.799182
 30
0.0
 10
8.743152
 20
150.084122
 30
0.0
 10
8.443033
 20
150.420215
 30
0.0
 10
8.136792
 20
150.819534
 30
0.0
 10
7.952314
 20
151.089934
 30
0.0
 10
7.791324
 20
151.360221
 30
0.0
 10
7.654166
 20
151.629504
 30
0.0
 10
7.541182
 20
151.896875
 30
0.0
 10
7.452709
 20
152.161433
 30
0.0
 10
7.389091
 20
152.422274
 30
0.0
 10
7.350671
 20
152.678501
 30
0.0
 10
7.337776
 20
152.929258
 30
0.0
 10
7.382437
 20
153.362004
 30
0.0
 10
7.506273
 20
153.962835
 30
0.0
 10
7.694068
 20
154.683461
 30
0.0
 10
7.930604
 20
155.475591
 30
0.0
 10
8.200661
 20
156.290937
 30
0.0
 10
8.489024
 20
157.081216
 30
0.0
 10
8.780473
 20
157.798134
 30
0.0
 10
9.059790
 20
158.393402
 30
0.0
 10
9.110721
 20
158.499490
 30
0.0
 10
9.158236
 20
158.613225
 30
0.0
 10
9.201293
 20
158.731067
 30
0.0
 10
9.238854
 20
158.849476
 30
0.0
 10
9.269878
 20
158.964902
 30
0.0
 10
9.293325
 20
159.073801
 30
0.0
 10
9.308155
 20
159.172623
 30
0.0
 10
9.313331
 20
159.257826
 30
0.0
 10
9.330541
 20
159.349515
 30
0.0
 10
9.379862
 20
159.466919
 30
0.0
 10
9.457837
 20
159.605202
 30
0.0
 10
9.561008
 20
159.759507
 30
0.0
 10
9.685916
 20
159.924986
 30
0.0
 10
9.829104
 20
160.096788
 30
0.0
 10
9.987112
 20
160.270067
 30
0.0
 10
10.156484
 20
160.439976
 30
0.0
 10
10.479273
 20
160.793180
 30
0.0
 10
10.747370
 20
161.180705
 30
0.0
 10
10.960109
 20
161.600158
 30
0.0
 10
11.116824
 20
162.049137
 30
0.0
 10
11.216849
 20
162.525248
 30
0.0
 10
11.259518
 20
163.026086
 30
0.0
 10
11.244165
 20
163.549255
 30
0.0
 10
11.170125
 20
164.092352
 30
0.0
 10
11.108393
 20
164.371400
 30
0.0
 10
11.032063
 20
164.604261
 30
0.0
 10
10.932753
 20
164.799663
 30
0.0
 10
10.802083
 20
164.966332
 30
0.0
 10
10.631669
 20
165.112975
 30
0.0
 10
10.413133
 20
165.248332
 30
0.0
 10
10.138090
 20
165.381112
 30
0.0
 10
9.798161
 20
165.520038
 30
0.0
 10
9.037698
 20
165.861697
 30
0.0
 10
8.371949
 20
166.261185
 30
0.0
 10
7.803352
 20
166.715422
 30
0.0
 10
7.334348
 20
167.221302
 30
0.0
 10
6.967377
 20
167.775733
 30
0.0
 10
6.704878
 20
168.375628
 30
0.0
 10
6.549291
 20
169.017881
 30
0.0
 10
6.503056
 20
169.699402
 30
0.0
 10
6.566669
 20
170.234391
 30
0.0
 10
6.731307
 20
170.979257
 30
0.0
 10
6.973788
 20
171.863457
 30
0.0
 10
7.270933
 20
172.816454
 30
0.0
 10
7.599561
 20
173.767706
 30
0.0
 10
7.936492
 20
174.646673
 30
0.0
 10
8.258544
 20
175.382824
 30
0.0
 10
8.542538
 20
175.905610
 30
0.0
 10
8.640681
 20
176.058710
 30
0.0
 10
8.732240
 20
176.207946
 30
0.0
 10
8.815211
 20
176.349585
 30
0.0
 10
8.887590
 20
176.479918
 30
0.0
 10
8.947373
 20
176.595209
 30
0.0
 10
8.992557
 20
176.691737
 30
0.0
 10
9.021136
 20
176.765778
 30
0.0
 10
9.031107
 20
176.813609
 30
0.0
 10
9.054915
 20
176.868868
 30
0.0
 10
9.123150
 20
176.964200
 30
0.0
 10
9.231027
 20
177.094392
 30
0.0
 10
9.373762
 20
177.254223
 30
0.0
 10
9.546571
 20
177.438480
 30
0.0
 10
9.744669
 20
177.641937
 30
0.0
 10
9.963271
 20
177.859389
 30
0.0
 10
10.197594
 20
178.085607
 30
0.0
 10
10.566991
 20
178.442604
 30
0.0
 10
10.846540
 20
178.735291
 30
0.0
 10
11.046543
 20
178.988408
 30
0.0
 10
11.177305
 20
179.226705
 30
0.0
 10
11.249130
 20
179.474928
 30
0.0
 10
11.272320
 20
179.757816
 30
0.0
 10
11.257182
 20
180.100118
 30
0.0
 10
11.214019
 20
180.526581
 30
0.0
 10
11.171143
 20
180.836244
 30
0.0
 10
11.115493
 20
181.119928
 30
0.0
 10
11.047569
 20
181.376383
 30
0.0
 10
10.967875
 20
181.604351
 30
0.0
 10
10.876910
 20
181.802578
 30
0.0
 10
10.775179
 20
181.969812
 30
0.0
 10
10.663182
 20
182.104807
 30
0.0
 10
10.541421
 20
182.206297
 30
0.0
 10
9.315541
 20
183.073784
 30
0.0
 10
8.401468
 20
183.871572
 30
0.0
 10
7.784889
 20
184.665997
 30
0.0
 10
7.451488
 20
185.523385
 30
0.0
 10
7.386953
 20
186.510076
 30
0.0
 10
7.576968
 20
187.692398
 30
0.0
 10
8.007220
 20
189.136685
 30
0.0
 10
8.663395
 20
190.909263
 30
0.0
 10
9.000974
 20
191.746975
 30
0.0
 10
9.310885
 20
192.438738
 30
0.0
 10
9.618302
 20
193.018742
 30
0.0
 10
9.948401
 20
193.521173
 30
0.0
 10
10.326358
 20
193.980219
 30
0.0
 10
10.777346
 20
194.430067
 30
0.0
 10
11.326543
 20
194.904900
 30
0.0
 10
11.999122
 20
195.438902
 30
0.0
 10
12.160768
 20
195.578943
 30
0.0
 10
12.309547
 20
195.737761
 30
0.0
 10
12.443862
 20
195.912532
 30
0.0
 10
12.562118
 20
196.100447
 30
0.0
 10
12.662718
 20
196.298680
 30
0.0
 10
12.744066
 20
196.504426
 30
0.0
 10
12.804566
 20
196.714862
 30
0.0
 10
12.842623
 20
196.927178
 30
0.0
 10
12.869273
 20
197.118680
 30
0.0
 10
12.901214
 20
197.308785
 30
0.0
 10
12.937240
 20
197.492511
 30
0.0
 10
12.976144
 20
197.664887
 30
0.0
 10
13.016722
 20
197.820930
 30
0.0
 10
13.057769
 20
197.955652
 30
0.0
 10
13.098079
 20
198.064087
 30
0.0
 10
13.136448
 20
198.141244
 30
0.0
 10
13.143275
 20
198.228753
 30
0.0
 10
13.093181
 20
198.366855
 30
0.0
 10
12.991302
 20
198.548485
 30
0.0
 10
12.842770
 20
198.766589
 30
0.0
 10
12.652720
 20
199.014098
 30
0.0
 10
12.426286
 20
199.283968
 30
0.0
 10
12.168601
 20
199.569122
 30
0.0
 10
11.884799
 20
199.862506
 30
0.0
 10
11.184855
 20
200.591049
 30
0.0
 10
10.657259
 20
201.225191
 30
0.0
 10
10.292018
 20
201.806075
 30
0.0
 10
10.079142
 20
202.374817
 30
0.0
 10
10.008637
 20
202.972553
 30
0.0
 10
10.070512
 20
203.640415
 30
0.0
 10
10.254775
 20
204.419529
 30
0.0
 10
10.551434
 20
205.351026
 30
0.0
 10
10.706406
 20
205.806307
 30
0.0
 10
10.855097
 20
206.247745
 30
0.0
 10
10.993960
 20
206.664485
 30
0.0
 10
11.119445
 20
207.045674
 30
0.0
 10
11.228005
 20
207.380458
 30
0.0
 10
11.316090
 20
207.657972
 30
0.0
 10
11.380152
 20
207.867367
 30
0.0
 10
11.416641
 20
207.997790
 30
0.0
 10
11.655845
 20
208.666832
 30
0.0
 10
12.035854
 20
209.375052
 30
0.0
 10
12.520736
 20
210.082874
 30
0.0
 10
13.074562
 20
210.750724
 30
0.0
 10
13.661403
 20
211.339048
 30
0.0
 10
14.245328
 20
211.808267
 30
0.0
 10
14.790407
 20
212.118813
 30
0.0
 10
15.260710
 20
212.231121
 30
0.0
 10
15.487912
 20
212.286916
 30
0.0
 10
15.699069
 20
212.450777
 30
0.0
 10
15.892103
 20
212.717432
 30
0.0
 10
16.064937
 20
213.081620
 30
0.0
 10
16.215494
 20
213.538064
 30
0.0
 10
16.341697
 20
214.081497
 30
0.0
 10
16.441469
 20
214.706644
 30
0.0
 10
16.512733
 20
215.408238
 30
0.0
 10
16.526940
 20
215.693059
 30
0.0
 10
16.521733
 20
215.940969
 30
0.0
 10
16.495216
 20
216.157439
 30
0.0
 10
16.445494
 20
216.347967
 30
0.0
 10
16.370670
 20
216.518045
 30
0.0
 10
16.268849
 20
216.673160
 30
0.0
 10
16.138133
 20
216.818801
 30
0.0
 10
15.976627
 20
216.960460
 30
0.0
 10
15.654611
 20
217.264376
 30
0.0
 10
15.375572
 20
217.624472
 30
0.0
 10
15.142413
 20
218.032278
 30
0.0
 10
14.958036
 20
218.479335
 30
0.0
 10
14.825340
 20
218.957176
 30
0.0
 10
14.747227
 20
219.457345
 30
0.0
 10
14.726599
 20
219.971370
 30
0.0
 10
14.766358
 20
220.490800
 30
0.0
 10
14.845010
 20
221.049682
 30
0.0
 10
14.915883
 20
221.502942
 30
0.0
 10
14.984960
 20
221.872608
 30
0.0
 10
15.058229
 20
222.180702
 30
0.0
 10
15.141674
 20
222.449242
 30
0.0
 10
15.241281
 20
222.700250
 30
0.0
 10
15.363035
 20
222.955760
 30
0.0
 10
15.512923
 20
223.237790
 30
0.0
 10
15.589436
 20
223.382398
 30
0.0
 10
15.658484
 20
223.522877
 30
0.0
 10
15.718724
 20
223.655750
 30
0.0
 10
15.768811
 20
223.777540
 30
0.0
 10
15.807399
 20
223.884779
 30
0.0
 10
15.833146
 20
223.973992
 30
0.0
 10
15.844706
 20
224.041712
 30
0.0
 10
15.840733
 20
224.084454
 30
0.0
 10
15.839717
 20
224.308575
 30
0.0
 10
15.936835
 20
224.679833
 30
0.0
 10
16.111720
 20
225.154249
 30
0.0
 10
16.343990
 20
225.687832
 30
0.0
 10
16.613261
 20
226.236596
 30
0.0
 10
16.899151
 20
226.756562
 30
0.0
 10
17.181279
 20
227.203735
 30
0.0
 10
17.439262
 20
227.534135
 30
0.0
 10
17.610140
 20
227.697635
 30
0.0
 10
17.822576
 20
227.867776
 30
0.0
 10
18.068127
 20
228.039576
 30
0.0
 10
18.338354
 20
228.208048
 30
0.0
 10
18.624814
 20
228.368215
 30
0.0
 10
18.919068
 20
228.515095
 30
0.0
 10
19.212677
 20
228.643698
 30
0.0
 10
19.497196
 20
228.749046
 30
0.0
 10
19.968119
 20
228.918297
 30
0.0
 10
20.372005
 20
229.091838
 30
0.0
 10
20.711761
 20
229.271924
 30
0.0
 10
20.990294
 20
229.460821
 30
0.0
 10
21.210507
 20
229.660801
 30
0.0
 10
21.375309
 20
229.874125
 30
0.0
 10
21.487606
 20
230.103060
 30
0.0
 10
21.550302
 20
230.349872
 30
0.0
 10
21.566025
 20
230.430850
 30
0.0
 10
21.589500
 20
230.520498
 30
0.0
 10
21.619586
 20
230.615850
 30
0.0
 10
21.655139
 20
230.713925
 30
0.0
 10
21.695015
 20
230.811757
 30
0.0
 10
21.738071
 20
230.906383
 30
0.0
 10
21.783162
 20
230.994826
 30
0.0
 10
21.829145
 20
231.074114
 30
0.0
 10
22.014010
 20
231.474962
 30
0.0
 10
22.115302
 20
231.934669
 30
0.0
 10
22.136568
 20
232.433228
 30
0.0
 10
22.081357
 20
232.950649
 30
0.0
 10
21.953214
 20
233.466926
 30
0.0
 10
21.755688
 20
233.962057
 30
0.0
 10
21.492315
 20
234.416048
 30
0.0
 10
21.166665
 20
234.808902
 30
0.0
 10
21.024458
 20
235.104546
 30
0.0
 10
20.961853
 20
235.585210
 30
0.0
 10
20.970841
 20
236.195527
 30
0.0
 10
21.043419
 20
236.880128
 30
0.0
 10
21.171576
 20
237.583634
 30
0.0
 10
21.347306
 20
238.250681
 30
0.0
 10
21.562603
 20
238.825892
 30
0.0
 10
21.809458
 20
239.253902
 30
0.0
 10
21.860507
 20
239.324768
 30
0.0
 10
21.900808
 20
239.390875
 30
0.0
 10
21.930004
 20
239.450788
 30
0.0
 10
21.947736
 20
239.503047
 30
0.0
 10
21.953643
 20
239.546219
 30
0.0
 10
21.947370
 20
239.578844
 30
0.0
 10
21.928557
 20
239.599474
 30
0.0
 10
21.896846
 20
239.606671
 30
0.0
 10
21.866689
 20
239.619625
 30
0.0
 10
21.852329
 20
239.656768
 30
0.0
 10
21.853091
 20
239.715496
 30
0.0
 10
21.868317
 20
239.793197
 30
0.0
 10
21.897329
 20
239.887267
 30
0.0
 10
21.939456
 20
239.995107
 30
0.0
 10
21.994028
 20
240.114106
 30
0.0
 10
22.060374
 20
240.241665
 30
0.0
 10
22.131608
 20
240.375693
 30
0.0
 10
22.200190
 20
240.513236
 30
0.0
 10
22.264466
 20
240.650385
 30
0.0
 10
22.322784
 20
240.783250
 30
0.0
 10
22.373491
 20
240.907907
 30
0.0
 10
22.414933
 20
241.020463
 30
0.0
 10
22.445458
 20
241.117011
 30
0.0
 10
22.463413
 20
241.193652
 30
0.0
 10
22.556404
 20
241.554648
 30
0.0
 10
22.713993
 20
241.956642
 30
0.0
 10
22.924731
 20
242.381528
 30
0.0
 10
23.177165
 20
242.811203
 30
0.0
 10
23.459846
 20
243.227562
 30
0.0
 10
23.761321
 20
243.612499
 30
0.0
 10
24.070140
 20
243.947915
 30
0.0
 10
24.374851
 20
244.215701
 30
0.0
 10
24.579785
 20
244.356313
 30
0.0
 10
24.817853
 20
244.492908
 30
0.0
 10
25.080493
 20
244.622110
 30
0.0
 10
25.359143
 20
244.740539
 30
0.0
 10
25.645239
 20
244.844820
 30
0.0
 10
25.930219
 20
244.931575
 30
0.0
 10
26.205519
 20
244.997429
 30
0.0
 10
26.462578
 20
245.039003
 30
0.0
 10
26.891928
 20
245.105460
 30
0.0
 10
27.283581
 20
245.199553
 30
0.0
 10
27.631512
 20
245.317979
 30
0.0
 10
27.929695
 20
245.457428
 30
0.0
 10
28.172104
 20
245.614589
 30
0.0
 10
28.352713
 20
245.786166
 30
0.0
 10
28.465501
 20
245.968840
 30
0.0
 10
28.504433
 20
246.159320
 30
0.0
 10
28.516174
 20
246.230994
 30
0.0
 10
28.549846
 20
246.329752
 30
0.0
 10
28.603078
 20
246.451152
 30
0.0
 10
28.673510
 20
246.590756
 30
0.0
 10
28.758786
 20
246.744122
 30
0.0
 10
28.856536
 20
246.906800
 30
0.0
 10
28.964407
 20
247.074358
 30
0.0
 10
29.080037
 20
247.242348
 30
0.0
 10
29.281419
 20
247.563969
 30
0.0
 10
29.425725
 20
247.885493
 30
0.0
 10
29.512977
 20
248.210641
 30
0.0
 10
29.543194
 20
248.543122
 30
0.0
 10
29.516383
 20
248.886645
 30
0.0
 10
29.432583
 20
249.244929
 30
0.0
 10
29.291799
 20
249.621685
 30
0.0
 10
29.094052
 20
250.020626
 30
0.0
 10
28.971596
 20
250.341397
 30
0.0
 10
28.895562
 20
250.753952
 30
0.0
 10
28.864269
 20
251.231229
 30
0.0
 10
28.876038
 20
251.746161
 30
0.0
 10
28.929158
 20
252.271672
 30
0.0
 10
29.021955
 20
252.780705
 30
0.0
 10
29.152740
 20
253.246186
 30
0.0
 10
29.319824
 20
253.641051
 30
0.0
 10
29.382435
 20
253.770303
 30
0.0
 10
29.459592
 20
253.946560
 30
0.0
 10
29.548260
 20
254.161983
 30
0.0
 10
29.645404
 20
254.408732
 30
0.0
 10
29.748009
 20
254.678969
 30
0.0
 10
29.853038
 20
254.964854
 30
0.0
 10
29.957460
 20
255.258552
 30
0.0
 10
30.058250
 20
255.552221
 30
0.0
 10
30.504220
 20
256.768519
 30
0.0
 10
30.959439
 20
257.777407
 30
0.0
 10
31.437512
 20
258.592829
 30
0.0
 10
31.952037
 20
259.228721
 30
0.0
 10
32.516617
 20
259.699036
 30
0.0
 10
33.144855
 20
260.017716
 30
0.0
 10
33.850346
 20
260.198696
 30
0.0
 10
34.646701
 20
260.255925
 30
0.0
 10
35.152954
 20
260.271419
 30
0.0
 10
35.607007
 20
260.316778
 30
0.0
 10
36.004153
 20
260.390241
 30
0.0
 10
36.339670
 20
260.490051
 30
0.0
 10
36.608839
 20
260.614466
 30
0.0
 10
36.806945
 20
260.761735
 30
0.0
 10
36.929269
 20
260.930106
 30
0.0
 10
36.971091
 20
261.117832
 30
0.0
 10
36.983848
 20
261.196617
 30
0.0
 10
37.020379
 20
261.296340
 30
0.0
 10
37.078127
 20
261.412946
 30
0.0
 10
37.154533
 20
261.542373
 30
0.0
 10
37.247040
 20
261.680569
 30
0.0
 10
37.353085
 20
261.823475
 30
0.0
 10
37.470108
 20
261.967030
 30
0.0
 10
37.595545
 20
262.107176
 30
0.0
 10
37.770658
 20
262.309422
 30
0.0
 10
37.909737
 20
262.511764
 30
0.0
 10
38.016076
 20
262.727856
 30
0.0
 10
38.092987
 20
262.971338
 30
0.0
 10
38.143764
 20
263.255863
 30
0.0
 10
38.171704
 20
263.595091
 30
0.0
 10
38.180114
 20
264.002665
 30
0.0
 10
38.172297
 20
264.492236
 30
0.0
 10
38.170604
 20
264.858456
 30
0.0
 10
38.184743
 20
265.236764
 30
0.0
 10
38.213188
 20
265.616471
 30
0.0
 10
38.254542
 20
265.986885
 30
0.0
 10
38.307408
 20
266.337323
 30
0.0
 10
38.370389
 20
266.657089
 30
0.0
 10
38.442090
 20
266.935493
 30
0.0
 10
38.521107
 20
267.161850
 30
0.0
 10
38.597990
 20
267.352530
 30
0.0
 10
38.664329
 20
267.530423
 30
0.0
 10
38.719046
 20
267.691626
 30
0.0
 10
38.761086
 20
267.832254
 30
0.0
 10
38.789373
 20
267.948409
 30
0.0
 10
38.802863
 20
268.036191
 30
0.0
 10
38.800323
 20
268.091718
 30
0.0
 10
38.780963
 20
268.111079
 30
0.0
 10
38.760699
 20
268.124033
 30
0.0
 10
38.755732
 20
268.161179
 30
0.0
 10
38.765158
 20
268.219903
 30
0.0
 10
38.788075
 20
268.297602
 30
0.0
 10
38.823604
 20
268.391672
 30
0.0
 10
38.870870
 20
268.499512
 30
0.0
 10
38.928977
 20
268.618511
 30
0.0
 10
38.997038
 20
268.746070
 30
0.0
 10
39.128454
 20
268.982461
 30
0.0
 10
39.227774
 20
269.166644
 30
0.0
 10
39.303867
 20
269.323600
 30
0.0
 10
39.365606
 20
269.478308
 30
0.0
 10
39.421870
 20
269.655741
 30
0.0
 10
39.481537
 20
269.880881
 30
0.0
 10
39.553473
 20
270.178702
 30
0.0
 10
39.646555
 20
270.574185
 30
0.0
 10
39.697601
 20
270.763761
 30
0.0
 10
39.760579
 20
270.953365
 30
0.0
 10
39.833022
 20
271.137938
 30
0.0
 10
39.912445
 20
271.312418
 30
0.0
 10
39.996372
 20
271.471746
 30
0.0
 10
40.082332
 20
271.610855
 30
0.0
 10
40.167842
 20
271.724691
 30
0.0
 10
40.250426
 20
271.808189
 30
0.0
 10
40.328633
 20
271.880246
 30
0.0
 10
40.401593
 20
271.961294
 30
0.0
 10
40.467709
 20
272.048571
 30
0.0
 10
40.525384
 20
272.139311
 30
0.0
 10
40.573023
 20
272.230757
 30
0.0
 10
40.609029
 20
272.320142
 30
0.0
 10
40.631804
 20
272.404708
 30
0.0
 10
40.639763
 20
272.481690
 30
0.0
 10
40.661946
 20
272.567445
 30
0.0
 10
40.725511
 20
272.677162
 30
0.0
 10
40.826007
 20
272.806309
 30
0.0
 10
40.958970
 20
272.950364
 30
0.0
 10
41.119953
 20
273.104800
 30
0.0
 10
41.304489
 20
273.265091
 30
0.0
 10
41.508132
 20
273.426710
 30
0.0
 10
41.726420
 20
273.585132
 30
0.0
 10
42.055121
 20
273.802978
 30
0.0
 10
42.352987
 20
273.973673
 30
0.0
 10
42.639463
 20
274.101877
 30
0.0
 10
42.933993
 20
274.192238
 30
0.0
 10
43.256017
 20
274.249414
 30
0.0
 10
43.624983
 20
274.278054
 30
0.0
 10
44.060341
 20
274.282823
 30
0.0
 10
44.581532
 20
274.268345
 30
0.0
 10
45.117887
 20
274.251496
 30
0.0
 10
45.545090
 20
274.251522
 30
0.0
 10
45.881948
 20
274.273563
 30
0.0
 10
46.147270
 20
274.322785
 30
0.0
 10
46.359877
 20
274.404319
 30
0.0
 10
46.538566
 20
274.523310
 30
0.0
 10
46.702145
 20
274.684899
 30
0.0
 10
46.869437
 20
274.894234
 30
0.0
 10
46.985547
 20
275.049304
 30
0.0
 10
47.116619
 20
275.223568
 30
0.0
 10
47.258151
 20
275.411096
 30
0.0
 10
47.405654
 20
275.605962
 30
0.0
 10
47.554628
 20
275.802231
 30
0.0
 10
47.700576
 20
275.993972
 30
0.0
 10
47.839012
 20
276.175258
 30
0.0
 10
47.965431
 20
276.340155
 30
0.0
 10
48.081252
 20
276.504922
 30
0.0
 10
48.189301
 20
276.685835
 30
0.0
 10
48.287215
 20
276.876989
 30
0.0
 10
48.372624
 20
277.072479
 30
0.0
 10
48.443174
 20
277.266400
 30
0.0
 10
48.496497
 20
277.452847
 30
0.0
 10
48.530222
 20
277.625920
 30
0.0
 10
48.541991
 20
277.779708
 30
0.0
 10
48.557823
 20
278.055513
 30
0.0
 10
48.603806
 20
278.383088
 30
0.0
 10
48.677647
 20
278.753798
 30
0.0
 10
48.777042
 20
279.159010
 30
0.0
 10
48.899710
 20
279.590087
 30
0.0
 10
49.043359
 20
280.038400
 30
0.0
 10
49.205684
 20
280.495310
 30
0.0
 10
49.384402
 20
280.952185
 30
0.0
 10
49.443886
 20
281.100132
 30
0.0
 10
49.524485
 20
281.304963
 30
0.0
 10
49.622651
 20
281.557419
 30
0.0
 10
49.734811
 20
281.848241
 30
0.0
 10
49.857414
 20
282.168165
 30
0.0
 10
49.986901
 20
282.507935
 30
0.0
 10
50.119709
 20
282.858289
 30
0.0
 10
50.252274
 20
283.209963
 30
0.0
 10
50.514868
 20
283.865638
 30
0.0
 10
50.781258
 20
284.437034
 30
0.0
 10
51.060773
 20
284.936333
 30
0.0
 10
51.362731
 20
285.375725
 30
0.0
 10
51.696453
 20
285.767393
 30
0.0
 10
52.071262
 20
286.123521
 30
0.0
 10
52.496472
 20
286.456292
 30
0.0
 10
52.981406
 20
286.777898
 30
0.0
 10
53.258889
 20
286.938691
 30
0.0
 10
53.519609
 20
287.062412
 30
0.0
 10
53.780269
 20
287.151430
 30
0.0
 10
54.057573
 20
287.208120
 30
0.0
 10
54.368226
 20
287.234847
 30
0.0
 10
54.728928
 20
287.234000
 30
0.0
 10
55.156396
 20
287.207923
 30
0.0
 10
55.667329
 20
287.158988
 30
0.0
 10
55.887914
 20
287.135450
 30
0.0
 10
56.108496
 20
287.111913
 30
0.0
 10
56.329078
 20
287.088376
 30
0.0
 10
56.549660
 20
287.064838
 30
0.0
 10
56.770239
 20
287.041301
 30
0.0
 10
56.990821
 20
287.017764
 30
0.0
 10
57.211403
 20
286.994226
 30
0.0
 10
57.431982
 20
286.970689
 30
0.0
 10
57.628988
 20
287.194257
 30
0.0
 10
57.825996
 20
287.417825
 30
0.0
 10
58.023001
 20
287.641393
 30
0.0
 10
58.220009
 20
287.864961
 30
0.0
 10
58.417014
 20
288.088526
 30
0.0
 10
58.614016
 20
288.312094
 30
0.0
 10
58.811025
 20
288.535662
 30
0.0
 10
59.008030
 20
288.759230
 30
0.0
 10
59.329424
 20
289.135790
 30
0.0
 10
59.638551
 20
289.520493
 30
0.0
 10
59.927970
 20
289.902529
 30
0.0
 10
60.190256
 20
290.271091
 30
0.0
 10
60.417975
 20
290.615374
 30
0.0
 10
60.603706
 20
290.924563
 30
0.0
 10
60.740011
 20
291.187853
 30
0.0
 10
60.819462
 20
291.394435
 30
0.0
 10
60.908452
 20
291.714014
 30
0.0
 10
60.978390
 20
291.962404
 30
0.0
 10
61.034876
 20
292.157256
 30
0.0
 10
61.083509
 20
292.316237
 30
0.0
 10
61.129878
 20
292.457007
 30
0.0
 10
61.179583
 20
292.597226
 30
0.0
 10
61.238220
 20
292.754557
 30
0.0
 10
61.311395
 20
292.946657
 30
0.0
 10
61.354493
 20
293.063237
 30
0.0
 10
61.415191
 20
293.232974
 30
0.0
 10
61.490696
 20
293.447787
 30
0.0
 10
61.578222
 20
293.699606
 30
0.0
 10
61.674965
 20
293.980352
 30
0.0
 10
61.778134
 20
294.281954
 30
0.0
 10
61.884933
 20
294.596336
 30
0.0
 10
61.992575
 20
294.915419
 30
0.0
 10
62.269624
 20
295.597528
 30
0.0
 10
62.627135
 20
296.254194
 30
0.0
 10
63.049771
 20
296.869145
 30
0.0
 10
63.522200
 20
297.426099
 30
0.0
 10
64.029090
 20
297.908773
 30
0.0
 10
64.555105
 20
298.300892
 30
0.0
 10
65.084904
 20
298.586174
 30
0.0
 10
65.603154
 20
298.748341
 30
0.0
 10
65.810923
 20
298.776897
 30
0.0
 10
66.048055
 20
298.791516
 30
0.0
 10
66.306263
 20
298.792645
 30
0.0
 10
66.577261
 20
298.781017
 30
0.0
 10
66.852760
 20
298.757056
 30
0.0
 10
67.124476
 20
298.721319
 30
0.0
 10
67.384126
 20
298.674340
 30
0.0
 10
67.623413
 20
298.616662
 30
0.0
 10
68.098077
 20
298.485099
 30
0.0
 10
68.459392
 20
298.395470
 30
0.0
 10
68.739077
 20
298.353967
 30
0.0
 10
68.968851
 20
298.366780
 30
0.0
 10
69.180439
 20
298.440087
 30
0.0
 10
69.405554
 20
298.580086
 30
0.0
 10
69.675920
 20
298.792966
 30
0.0
 10
70.023253
 20
299.084914
 30
0.0
 10
70.210691
 20
299.239081
 30
0.0
 10
70.389719
 20
299.379548
 30
0.0
 10
70.556120
 20
299.503480
 30
0.0
 10
70.705681
 20
299.608044
 30
0.0
 10
70.834179
 20
299.690402
 30
0.0
 10
70.937411
 20
299.747724
 30
0.0
 10
71.011150
 20
299.777177
 30
0.0
 10
71.051183
 20
299.776048
 30
0.0
 10
71.083949
 20
299.773790
 30
0.0
 10
71.136866
 20
299.799952
 30
0.0
 10
71.207178
 20
299.852095
 30
0.0
 10
71.292127
 20
299.927601
 30
0.0
 10
71.388961
 20
300.023867
 30
0.0
 10
71.494921
 20
300.138289
 30
0.0
 10
71.607243
 20
300.268258
 30
0.0
 10
71.723185
 20
300.411175
 30
0.0
 10
71.844527
 20
300.555828
 30
0.0
 10
71.972348
 20
300.690778
 30
0.0
 10
72.102794
 20
300.813071
 30
0.0
 10
72.232032
 20
300.919748
 30
0.0
 10
72.356210
 20
301.007863
 30
0.0
 10
72.471494
 20
301.074459
 30
0.0
 10
72.574046
 20
301.116581
 30
0.0
 10
72.660010
 20
301.131285
 30
0.0
 10
72.836397
 20
301.183874
 30
0.0
 10
73.039549
 20
301.329430
 30
0.0
 10
73.256371
 20
301.549628
 30
0.0
 10
73.473778
 20
301.826138
 30
0.0
 10
73.678672
 20
302.140644
 30
0.0
 10
73.857956
 20
302.474815
 30
0.0
 10
73.998542
 20
302.810332
 30
0.0
 10
74.087338
 20
303.128865
 30
0.0
 10
74.112879
 20
303.245431
 30
0.0
 10
74.145388
 20
303.368054
 30
0.0
 10
74.183519
 20
303.493056
 30
0.0
 10
74.225943
 20
303.616765
 30
0.0
 10
74.271324
 20
303.735501
 30
0.0
 10
74.318340
 20
303.845591
 30
0.0
 10
74.365654
 20
303.943358
 30
0.0
 10
74.411933
 20
304.025124
 30
0.0
 10
74.456970
 20
304.101535
 30
0.0
 10
74.500732
 20
304.183958
 30
0.0
 10
74.542128
 20
304.269788
 30
0.0
 10
74.580078
 20
304.356424
 30
0.0
 10
74.613502
 20
304.441272
 30
0.0
 10
74.641329
 20
304.521727
 30
0.0
 10
74.662439
 20
304.595190
 30
0.0
 10
74.675788
 20
304.659062
 30
0.0
 10
74.826089
 20
305.190763
 30
0.0
 10
75.108130
 20
305.839372
 30
0.0
 10
75.480697
 20
306.541445
 30
0.0
 10
75.902560
 20
307.233541
 30
0.0
 10
76.332495
 20
307.852221
 30
0.0
 10
76.729265
 20
308.334042
 30
0.0
 10
77.051656
 20
308.615567
 30
0.0
 10
77.258438
 20
308.633347
 30
0.0
 10
77.303791
 20
308.613591
 30
0.0
 10
77.378715
 20
308.611898
 30
0.0
 10
77.479248
 20
308.627364
 30
0.0
 10
77.601408
 20
308.658671
 30
0.0
 10
77.741230
 20
308.704656
 30
0.0
 10
77.894736
 20
308.764145
 30
0.0
 10
78.057954
 20
308.835968
 30
0.0
 10
78.226914
 20
308.918950
 30
0.0
 10
78.483491
 20
309.044073
 30
0.0
 10
78.712334
 20
309.133493
 30
0.0
 10
78.931592
 20
309.187225
 30
0.0
 10
79.159427
 20
309.205287
 30
0.0
 10
79.413978
 20
309.187705
 30
0.0
 10
79.713401
 20
309.134486
 30
0.0
 10
80.075845
 20
309.045648
 30
0.0
 10
80.519468
 20
308.921211
 30
0.0
 10
80.822571
 20
308.837106
 30
0.0
 10
81.122066
 20
308.761131
 30
0.0
 10
81.410189
 20
308.694778
 30
0.0
 10
81.679203
 20
308.639530
 30
0.0
 10
81.921344
 20
308.596870
 30
0.0
 10
82.128876
 20
308.568280
 30
0.0
 10
82.294039
 20
308.555241
 30
0.0
 10
82.409081
 20
308.559249
 30
0.0
 10
82.532370
 20
308.599170
 30
0.0
 10
82.721165
 20
308.689057
 30
0.0
 10
82.966055
 20
308.823181
 30
0.0
 10
83.257633
 20
308.995808
 30
0.0
 10
83.586492
 20
309.201203
 30
0.0
 10
83.943232
 20
309.433642
 30
0.0
 10
84.318435
 20
309.687388
 30
0.0
 10
84.702695
 20
309.956709
 30
0.0
 10
85.083340
 20
310.224781
 30
0.0
 10
85.448165
 20
310.474946
 30
0.0
 10
85.788497
 20
310.701720
 30
0.0
 10
86.095657
 20
310.899625
 30
0.0
 10
86.360957
 20
311.063179
 30
0.0
 10
86.575725
 20
311.186902
 30
0.0
 10
86.731277
 20
311.265315
 30
0.0
 10
86.818933
 20
311.292944
 30
0.0
 10
86.987462
 20
311.368278
 30
0.0
 10
87.202843
 20
311.580500
 30
0.0
 10
87.454678
 20
311.912281
 30
0.0
 10
87.732579
 20
312.346288
 30
0.0
 10
88.026147
 20
312.865190
 30
0.0
 10
88.324989
 20
313.451659
 30
0.0
 10
88.618720
 20
314.088361
 30
0.0
 10
88.896935
 20
314.757964
 30
0.0
 10
89.056980
 20
315.136624
 30
0.0
 10
89.233640
 20
315.500886
 30
0.0
 10
89.424739
 20
315.847477
 30
0.0
 10
89.628094
 20
316.173119
 30
0.0
 10
89.841527
 20
316.474533
 30
0.0
 10
90.062868
 20
316.748443
 30
0.0
 10
90.289930
 20
316.991572
 30
0.0
 10
90.520540
 20
317.200644
 30
0.0
 10
90.815699
 20
317.433950
 30
0.0
 10
91.081044
 20
317.617073
 30
0.0
 10
91.332761
 20
317.754904
 30
0.0
 10
91.587032
 20
317.852332
 30
0.0
 10
91.860034
 20
317.914249
 30
0.0
 10
92.167953
 20
317.945544
 30
0.0
 10
92.526968
 20
317.951107
 30
0.0
 10
92.953259
 20
317.935830
 30
0.0
 10
93.438114
 20
317.908683
 30
0.0
 10
93.837198
 20
317.879491
 30
0.0
 10
94.176734
 20
317.843384
 30
0.0
 10
94.482926
 20
317.795494
 30
0.0
 10
94.781994
 20
317.730951
 30
0.0
 10
95.100148
 20
317.644885
 30
0.0
 10
95.463606
 20
317.532426
 30
0.0
 10
95.898578
 20
317.388707
 30
0.0
 10
96.061445
 20
317.344737
 30
0.0
 10
96.225665
 20
317.321739
 30
0.0
 10
96.391225
 20
317.319707
 30
0.0
 10
96.558125
 20
317.338650
 30
0.0
 10
96.726369
 20
317.378563
 30
0.0
 10
96.895954
 20
317.439445
 30
0.0
 10
97.066873
 20
317.521297
 30
0.0
 10
97.239130
 20
317.624118
 30
0.0
 10
97.378085
 20
317.712270
 30
0.0
 10
97.507721
 20
317.788813
 30
0.0
 10
97.625199
 20
317.852482
 30
0.0
 10
97.727677
 20
317.902010
 30
0.0
 10
97.812315
 20
317.936131
 30
0.0
 10
97.876289
 20
317.953578
 30
0.0
 10
97.916754
 20
317.953098
 30
0.0
 10
97.930866
 20
317.933399
 30
0.0
 10
97.962268
 20
317.924540
 30
0.0
 10
98.052275
 20
317.955109
 30
0.0
 10
98.194568
 20
318.021662
 30
0.0
 10
98.382847
 20
318.120751
 30
0.0
 10
98.610793
 20
318.248932
 30
0.0
 10
98.872096
 20
318.402757
 30
0.0
 10
99.160446
 20
318.578782
 30
0.0
 10
99.469530
 20
318.773560
 30
0.0
 10
99.786527
 20
318.971280
 30
0.0
 10
100.097553
 20
319.155735
 30
0.0
 10
100.394714
 20
319.322888
 30
0.0
 10
100.670098
 20
319.468703
 30
0.0
 10
100.915809
 20
319.589141
 30
0.0
 10
101.123945
 20
319.680167
 30
0.0
 10
101.286606
 20
319.737743
 30
0.0
 10
101.395888
 20
319.757832
 30
0.0
 10
101.575715
 20
319.807350
 30
0.0
 10
101.810495
 20
319.940925
 30
0.0
 10
102.075906
 20
320.136088
 30
0.0
 10
102.347612
 20
320.370371
 30
0.0
 10
102.601293
 20
320.621304
 30
0.0
 10
102.812610
 20
320.866420
 30
0.0
 10
102.957246
 20
321.083250
 30
0.0
 10
103.010866
 20
321.249325
 30
0.0
 10
103.025400
 20
321.318277
 30
0.0
 10
103.067045
 20
321.444013
 30
0.0
 10
103.132884
 20
321.619390
 30
0.0
 10
103.219998
 20
321.837264
 30
0.0
 10
103.325464
 20
322.090492
 30
0.0
 10
103.446368
 20
322.371932
 30
0.0
 10
103.579786
 20
322.674440
 30
0.0
 10
103.722797
 20
322.990874
 30
0.0
 10
103.934723
 20
323.435228
 30
0.0
 10
104.133105
 20
323.803583
 30
0.0
 10
104.329439
 20
324.108408
 30
0.0
 10
104.535221
 20
324.362167
 30
0.0
 10
104.761961
 20
324.577329
 30
0.0
 10
105.021149
 20
324.766362
 30
0.0
 10
105.324283
 20
324.941731
 30
0.0
 10
105.682869
 20
325.115904
 30
0.0
 10
106.197756
 20
325.337202
 30
0.0
 10
106.654428
 20
325.496167
 30
0.0
 10
107.084193
 20
325.593107
 30
0.0
 10
107.518367
 20
325.628340
 30
0.0
 10
107.988252
 20
325.602178
 30
0.0
 10
108.525169
 20
325.514937
 30
0.0
 10
109.160414
 20
325.366932
 30
0.0
 10
109.925313
 20
325.158475
 30
0.0
 10
110.470504
 20
325.007188
 30
0.0
 10
110.908832
 20
324.900093
 30
0.0
 10
111.273793
 20
324.837854
 30
0.0
 10
111.598908
 20
324.821132
 30
0.0
 10
111.917663
 20
324.850591
 30
0.0
 10
112.263575
 20
324.926893
 30
0.0
 10
112.670138
 20
325.050702
 30
0.0
 10
113.170868
 20
325.222682
 30
0.0
 10
113.485557
 20
325.336361
 30
0.0
 10
113.784702
 20
325.450506
 30
0.0
 10
114.061356
 20
325.562043
 30
0.0
 10
114.308577
 20
325.667893
 30
0.0
 10
114.519416
 20
325.764978
 30
0.0
 10
114.686932
 20
325.850223
 30
0.0
 10
114.804170
 20
325.920553
 30
0.0
 10
114.864202
 20
325.972885
 30
0.0
 10
114.912518
 20
326.018430
 30
0.0
 10
114.996203
 20
326.069304
 30
0.0
 10
115.110661
 20
326.123790
 30
0.0
 10
115.251301
 20
326.180178
 30
0.0
 10
115.413528
 20
326.236755
 30
0.0
 10
115.592756
 20
326.291805
 30
0.0
 10
115.784384
 20
326.343618
 30
0.0
 10
115.983825
 20
326.390484
 30
0.0
 10
116.500425
 20
326.518102
 30
0.0
 10
116.935577
 20
326.665557
 30
0.0
 10
117.304913
 20
326.846146
 30
0.0
 10
117.624056
 20
327.073160
 30
0.0
 10
117.908632
 20
327.359900
 30
0.0
 10
118.174259
 20
327.719660
 30
0.0
 10
118.436573
 20
328.165744
 30
0.0
 10
118.711195
 20
328.711440
 30
0.0
 10
118.992114
 20
329.246790
 30
0.0
 10
119.302095
 20
329.741799
 30
0.0
 10
119.631855
 20
330.186898
 30
0.0
 10
119.972102
 20
330.572523
 30
0.0
 10
120.313554
 20
330.889106
 30
0.0
 10
120.646927
 20
331.127082
 30
0.0
 10
120.962922
 20
331.276882
 30
0.0
 10
121.252511
 20
331.328899
 30
0.0
 10
121.329904
 20
331.334656
 30
0.0
 10
121.402105
 20
331.351166
 30
0.0
 10
121.467533
 20
331.377272
 30
0.0
 10
121.524609
 20
331.411804
 30
0.0
 10
121.571752
 20
331.453613
 30
0.0
 10
121.607382
 20
331.501542
 30
0.0
 10
121.629932
 20
331.554431
 30
0.0
 10
121.637778
 20
331.611121
 30
0.0
 10
121.694123
 20
331.758534
 30
0.0
 10
121.863860
 20
331.847595
 30
0.0
 10
122.148033
 20
331.878171
 30
0.0
 10
122.547693
 20
331.850118
 30
0.0
 10
123.063886
 20
331.763332
 30
0.0
 10
123.697656
 20
331.617666
 30
0.0
 10
124.450054
 20
331.412992
 30
0.0
 10
125.322130
 20
331.149177
 30
0.0
 10
125.617664
 20
331.056159
 30
0.0
 10
125.913196
 20
330.963139
 30
0.0
 10
126.208731
 20
330.870118
 30
0.0
 10
126.504265
 20
330.777101
 30
0.0
 10
126.799797
 20
330.684080
 30
0.0
 10
127.095332
 20
330.591063
 30
0.0
 10
127.390864
 20
330.498042
 30
0.0
 10
127.686398
 20
330.405024
 30
0.0
 10
127.952178
 20
330.483683
 30
0.0
 10
128.217961
 20
330.562344
 30
0.0
 10
128.483741
 20
330.641002
 30
0.0
 10
128.749521
 20
330.719663
 30
0.0
 10
129.015301
 20
330.798321
 30
0.0
 10
129.281084
 20
330.876982
 30
0.0
 10
129.546864
 20
330.955640
 30
0.0
 10
129.812644
 20
331.034301
 30
0.0
 10
130.251276
 20
331.163000
 30
0.0
 10
130.682738
 20
331.287491
 30
0.0
 10
131.095993
 20
331.404732
 30
0.0
 10
131.480010
 20
331.511686
 30
0.0
 10
131.823754
 20
331.605307
 30
0.0
 10
132.116187
 20
331.682557
 30
0.0
 10
132.346277
 20
331.740393
 30
0.0
 10
132.502992
 20
331.775772
 30
0.0
 10
132.842308
 20
331.873339
 30
0.0
 10
133.181818
 20
332.029402
 30
0.0
 10
133.517821
 20
332.240674
 30
0.0
 10
133.846612
 20
332.503863
 30
0.0
 10
134.164499
 20
332.815679
 30
0.0
 10
134.467781
 20
333.172834
 30
0.0
 10
134.752752
 20
333.572038
 30
0.0
 10
135.015718
 20
334.009999
 30
0.0
 10
135.500217
 20
334.708428
 30
0.0
 10
136.106704
 20
335.289123
 30
0.0
 10
136.808583
 20
335.743732
 30
0.0
 10
137.579258
 20
336.063896
 30
0.0
 10
138.392134
 20
336.241259
 30
0.0
 10
139.220620
 20
336.267477
 30
0.0
 10
140.038119
 20
336.134175
 30
0.0
 10
140.818035
 20
335.833007
 30
0.0
 10
140.938812
 20
335.778245
 30
0.0
 10
141.116358
 20
335.708223
 30
0.0
 10
141.342147
 20
335.625834
 30
0.0
 10
141.607656
 20
335.533959
 30
0.0
 10
141.904362
 20
335.435489
 30
0.0
 10
142.223736
 20
335.333305
 30
0.0
 10
142.557254
 20
335.230296
 30
0.0
 10
142.896395
 20
335.129348
 30
0.0
 10
143.425319
 20
334.980341
 30
0.0
 10
143.872557
 20
334.874361
 30
0.0
 10
144.280961
 20
334.811687
 30
0.0
 10
144.693380
 20
334.792609
 30
0.0
 10
145.152666
 20
334.817388
 30
0.0
 10
145.701670
 20
334.886315
 30
0.0
 10
146.383242
 20
334.999673
 30
0.0
 10
147.240233
 20
335.157737
 30
0.0
 10
148.203025
 20
335.363638
 30
0.0
 10
149.056550
 20
335.597013
 30
0.0
 10
149.794920
 20
335.854792
 30
0.0
 10
150.412247
 20
336.133918
 30
0.0
 10
150.902639
 20
336.431321
 30
0.0
 10
151.260209
 20
336.743936
 30
0.0
 10
151.479072
 20
337.068700
 30
0.0
 10
151.553333
 20
337.402550
 30
0.0
 10
151.621558
 20
337.638527
 30
0.0
 10
151.812893
 20
337.895126
 30
0.0
 10
152.107330
 20
338.159992
 30
0.0
 10
152.484859
 20
338.420768
 30
0.0
 10
152.925475
 20
338.665107
 30
0.0
 10
153.409167
 20
338.880652
 30
0.0
 10
153.915928
 20
339.055051
 30
0.0
 10
154.425752
 20
339.175952
 30
0.0
 10
154.871256
 20
339.229687
 30
0.0
 10
155.340527
 20
339.240496
 30
0.0
 10
155.815690
 20
339.211617
 30
0.0
 10
156.278876
 20
339.146324
 30
0.0
 10
156.712217
 20
339.047885
 30
0.0
 10
157.097843
 20
338.919556
 30
0.0
 10
157.417880
 20
338.764608
 30
0.0
 10
157.654464
 20
338.586300
 30
0.0
 10
157.704350
 20
338.545756
 30
0.0
 10
157.768950
 20
338.507932
 30
0.0
 10
157.845557
 20
338.473656
 30
0.0
 10
157.931465
 20
338.443758
 30
0.0
 10
158.023975
 20
338.419063
 30
0.0
 10
158.120374
 20
338.400408
 30
0.0
 10
158.217960
 20
338.388611
 30
0.0
 10
158.314029
 20
338.384491
 30
0.0
 10
158.428797
 20
338.372638
 30
0.0
 10
158.579978
 20
338.338650
 30
0.0
 10
158.761105
 20
338.284914
 30
0.0
 10
158.965719
 20
338.213817
 30
0.0
 10
159.187357
 20
338.127742
 30
0.0
 10
159.419552
 20
338.029069
 30
0.0
 10
159.655846
 20
337.920182
 30
0.0
 10
159.889771
 20
337.803466
 30
0.0
 10
160.241508
 20
337.631375
 30
0.0
 10
160.571905
 20
337.500354
 30
0.0
 10
160.911752
 20
337.407251
 30
0.0
 10
161.291823
 20
337.348919
 30
0.0
 10
161.742902
 20
337.322192
 30
0.0
 10
162.295772
 20
337.323886
 30
0.0
 10
162.981211
 20
337.350979
 30
0.0
 10
163.830000
 20
337.400230
 30
0.0
 10
165.015728
 20
337.478019
 30
0.0
 10
165.921357
 20
337.552762
 30
0.0
 10
166.595126
 20
337.640229
 30
0.0
 10
167.085272
 20
337.756185
 30
0.0
 10
167.440037
 20
337.916400
 30
0.0
 10
167.707660
 20
338.136643
 30
0.0
 10
167.936378
 20
338.432680
 30
0.0
 10
168.174433
 20
338.820279
 30
0.0
 10
168.298376
 20
339.016189
 30
0.0
 10
168.430157
 20
339.198956
 30
0.0
 10
168.565731
 20
339.364578
 30
0.0
 10
168.701065
 20
339.509059
 30
0.0
 10
168.832115
 20
339.628394
 30
0.0
 10
168.954845
 20
339.718589
 30
0.0
 10
169.065214
 20
339.775638
 30
0.0
 10
169.159185
 20
339.795534
 30
0.0
 10
169.243812
 20
339.802731
 30
0.0
 10
169.327398
 20
339.823361
 30
0.0
 10
169.407784
 20
339.855986
 30
0.0
 10
169.482810
 20
339.899152
 30
0.0
 10
169.550311
 20
339.951414
 30
0.0
 10
169.608130
 20
340.011324
 30
0.0
 10
169.654104
 20
340.077438
 30
0.0
 10
169.686074
 20
340.148304
 30
0.0
 10
169.833423
 20
340.266072
 30
0.0
 10
170.159257
 20
340.361209
 30
0.0
 10
170.617538
 20
340.431415
 30
0.0
 10
171.162232
 20
340.474389
 30
0.0
 10
171.747307
 20
340.487823
 30
0.0
 10
172.326723
 20
340.469450
 30
0.0
 10
172.854448
 20
340.416937
 30
0.0
 10
173.284444
 20
340.327997
 30
0.0
 10
173.919746
 20
340.126152
 30
0.0
 10
174.616356
 20
339.880384
 30
0.0
 10
175.337950
 20
339.605889
 30
0.0
 10
176.048218
 20
339.317859
 30
0.0
 10
176.710848
 20
339.031488
 30
0.0
 10
177.289516
 20
338.761972
 30
0.0
 10
177.747916
 20
338.524501
 30
0.0
 10
178.049727
 20
338.334272
 30
0.0
 10
178.262413
 20
338.192354
 30
0.0
 10
178.502592
 20
338.077854
 30
0.0
 10
178.787854
 20
337.988149
 30
0.0
 10
179.135792
 20
337.920625
 30
0.0
 10
179.563999
 20
337.872661
 30
0.0
 10
180.090061
 20
337.841642
 30
0.0
 10
180.731578
 20
337.824963
 30
0.0
 10
181.506137
 20
337.819967
 30
0.0
 10
182.420480
 20
337.822225
 30
0.0
 10
183.123061
 20
337.835969
 30
0.0
 10
183.657756
 20
337.872111
 30
0.0
 10
184.068443
 20
337.941447
 30
0.0
 10
184.398999
 20
338.054802
 30
0.0
 10
184.693295
 20
338.222981
 30
0.0
 10
184.995216
 20
338.456805
 30
0.0
 10
185.348632
 20
338.767085
 30
0.0
 10
186.060416
 20
339.375029
 30
0.0
 10
186.687737
 20
339.823113
 30
0.0
 10
187.283288
 20
340.117471
 30
0.0
 10
187.899765
 20
340.264232
 30
0.0
 10
188.589869
 20
340.269538
 30
0.0
 10
189.406293
 20
340.139507
 30
0.0
 10
190.401736
 20
339.880280
 30
0.0
 10
191.628889
 20
339.497990
 30
0.0
 10
192.067143
 20
339.344665
 30
0.0
 10
192.486785
 20
339.175605
 30
0.0
 10
192.886104
 20
338.991765
 30
0.0
 10
193.263376
 20
338.794105
 30
0.0
 10
193.616893
 20
338.583582
 30
0.0
 10
193.944934
 20
338.361157
 30
0.0
 10
194.245783
 20
338.127787
 30
0.0
 10
194.517727
 20
337.884433
 30
0.0
 10
194.739692
 20
337.678219
 30
0.0
 10
194.966409
 20
337.482472
 30
0.0
 10
195.191510
 20
337.301726
 30
0.0
 10
195.408629
 20
337.140503
 30
0.0
 10
195.611400
 20
337.003324
 30
0.0
 10
195.793453
 20
336.894716
 30
0.0
 10
195.948424
 20
336.819205
 30
0.0
 10
196.069949
 20
336.781311
 30
0.0
 10
196.222685
 20
336.757294
 30
0.0
 10
196.467109
 20
336.721530
 30
0.0
 10
196.790584
 20
336.675765
 30
0.0
 10
197.180471
 20
336.621734
 30
0.0
 10
197.624133
 20
336.561177
 30
0.0
 10
198.108928
 20
336.495829
 30
0.0
 10
198.622223
 20
336.427429
 30
0.0
 10
199.151373
 20
336.357715
 30
0.0
 10
199.474322
 20
336.315418
 30
0.0
 10
199.797269
 20
336.273119
 30
0.0
 10
200.120219
 20
336.230819
 30
0.0
 10
200.443169
 20
336.188520
 30
0.0
 10
200.766118
 20
336.146220
 30
0.0
 10
201.089065
 20
336.103921
 30
0.0
 10
201.412015
 20
336.061624
 30
0.0
 10
201.734965
 20
336.019325
 30
0.0
 10
201.824717
 20
336.125991
 30
0.0
 10
201.914472
 20
336.232654
 30
0.0
 10
202.004224
 20
336.339320
 30
0.0
 10
202.093977
 20
336.445988
 30
0.0
 10
202.183732
 20
336.552654
 30
0.0
 10
202.273484
 20
336.659317
 30
0.0
 10
202.363239
 20
336.765983
 30
0.0
 10
202.452992
 20
336.872649
 30
0.0
 10
202.604723
 20
337.045183
 30
0.0
 10
202.760766
 20
337.208304
 30
0.0
 10
202.916671
 20
337.358286
 30
0.0
 10
203.067982
 20
337.491410
 30
0.0
 10
203.210250
 20
337.603943
 30
0.0
 10
203.339025
 20
337.692166
 30
0.0
 10
203.449854
 20
337.752350
 30
0.0
 10
203.538286
 20
337.780775
 30
0.0
 10
204.342300
 20
337.892473
 30
0.0
 10
205.024330
 20
337.964750
 30
0.0
 10
205.616389
 20
337.995380
 30
0.0
 10
206.150498
 20
337.982144
 30
0.0
 10
206.658681
 20
337.922784
 30
0.0
 10
207.172955
 20
337.815088
 30
0.0
 10
207.725340
 20
337.656818
 30
0.0
 10
208.347855
 20
337.445749
 30
0.0
 10
209.190723
 20
337.125365
 30
0.0
 10
209.936453
 20
336.799497
 30
0.0
 10
210.586264
 20
336.467324
 30
0.0
 10
211.141375
 20
336.128020
 30
0.0
 10
211.603011
 20
335.780760
 30
0.0
 10
211.972390
 20
335.424722
 30
0.0
 10
212.250728
 20
335.059078
 30
0.0
 10
212.439253
 20
334.683011
 30
0.0
 10
212.521983
 20
334.494032
 30
0.0
 10
212.619909
 20
334.325526
 30
0.0
 10
212.733311
 20
334.177249
 30
0.0
 10
212.862470
 20
334.048959
 30
0.0
 10
213.007674
 20
333.940411
 30
0.0
 10
213.169198
 20
333.851361
 30
0.0
 10
213.347328
 20
333.781568
 30
0.0
 10
213.542344
 20
333.730788
 30
0.0
 10
213.722441
 20
333.692134
 30
0.0
 10
213.925841
 20
333.644896
 30
0.0
 10
214.145557
 20
333.590907
 30
0.0
 10
214.374611
 20
333.531999
 30
0.0
 10
214.606020
 20
333.470003
 30
0.0
 10
214.832802
 20
333.406757
 30
0.0
 10
215.047977
 20
333.344092
 30
0.0
 10
215.244559
 20
333.283844
 30
0.0
 10
215.931155
 20
333.090795
 30
0.0
 10
216.607983
 20
332.945434
 30
0.0
 10
217.258062
 20
332.848442
 30
0.0
 10
217.864413
 20
332.800498
 30
0.0
 10
218.410062
 20
332.802192
 30
0.0
 10
218.878026
 20
332.854386
 30
0.0
 10
219.251330
 20
332.957668
 30
0.0
 10
219.512992
 20
333.112718
 30
0.0
 10
219.987735
 20
333.489699
 30
0.0
 10
220.494510
 20
333.793732
 30
0.0
 10
221.026073
 20
334.023308
 30
0.0
 10
221.575184
 20
334.176933
 30
0.0
 10
222.134597
 20
334.253099
 30
0.0
 10
222.697068
 20
334.250277
 30
0.0
 10
223.255357
 20
334.167030
 30
0.0
 10
223.802222
 20
334.001823
 30
0.0
 10
223.849410
 20
333.986526
 30
0.0
 10
223.929852
 20
333.963694
 30
0.0
 10
224.039182
 20
333.934431
 30
0.0
 10
224.173040
 20
333.899861
 30
0.0
 10
224.327060
 20
333.861090
 30
0.0
 10
224.496873
 20
333.819233
 30
0.0
 10
224.678119
 20
333.775401
 30
0.0
 10
224.866429
 20
333.730706
 30
0.0
 10
225.054959
 20
333.682101
 30
0.0
 10
225.236834
 20
333.627060
 30
0.0
 10
225.407646
 20
333.567483
 30
0.0
 10
225.562984
 20
333.505261
 30
0.0
 10
225.698439
 20
333.442300
 30
0.0
 10
225.809601
 20
333.380496
 30
0.0
 10
225.892066
 20
333.321743
 30
0.0
 10
225.941419
 20
333.267946
 30
0.0
 10
225.980842
 20
333.218574
 30
0.0
 10
226.034848
 20
333.172518
 30
0.0
 10
226.101021
 20
333.130780
 30
0.0
 10
226.176950
 20
333.094371
 30
0.0
 10
226.260220
 20
333.064297
 30
0.0
 10
226.348414
 20
333.041578
 30
0.0
 10
226.439123
 20
333.027213
 30
0.0
 10
226.529931
 20
333.022190
 30
0.0
 10
226.862380
 20
332.946924
 30
0.0
 10
227.268484
 20
332.738525
 30
0.0
 10
227.719774
 20
332.423100
 30
0.0
 10
228.187792
 20
332.026744
 30
0.0
 10
228.644069
 20
331.575555
 30
0.0
 10
229.060141
 20
331.095642
 30
0.0
 10
229.407545
 20
330.613101
 30
0.0
 10
229.657817
 20
330.154036
 30
0.0
 10
229.812777
 20
329.823833
 30
0.0
 10
229.969294
 20
329.550120
 30
0.0
 10
230.141004
 20
329.321638
 30
0.0
 10
230.341531
 20
329.127131
 30
0.0
 10
230.584508
 20
328.955339
 30
0.0
 10
230.883567
 20
328.795006
 30
0.0
 10
231.252336
 20
328.634873
 30
0.0
 10
231.704444
 20
328.463686
 30
0.0
 10
232.022012
 20
328.349575
 30
0.0
 10
232.329411
 20
328.240826
 30
0.0
 10
232.619118
 20
328.139979
 30
0.0
 10
232.883603
 20
328.049584
 30
0.0
 10
233.115350
 20
327.972181
 30
0.0
 10
233.306826
 20
327.910316
 30
0.0
 10
233.450517
 20
327.866532
 30
0.0
 10
233.538889
 20
327.843361
 30
0.0
 10
233.602857
 20
327.827133
 30
0.0
 10
233.676605
 20
327.803201
 30
0.0
 10
233.757504
 20
327.772727
 30
0.0
 10
233.842944
 20
327.736856
 30
0.0
 10
233.930297
 20
327.696747
 30
0.0
 10
234.016945
 20
327.653544
 30
0.0
 10
234.100271
 20
327.608405
 30
0.0
 10
234.177654
 20
327.562479
 30
0.0
 10
234.454051
 20
327.434342
 30
0.0
 10
234.780881
 20
327.355119
 30
0.0
 10
235.140198
 20
327.323101
 30
0.0
 10
235.514052
 20
327.336592
 30
0.0
 10
235.884491
 20
327.393866
 30
0.0
 10
236.233566
 20
327.493225
 30
0.0
 10
236.543328
 20
327.632962
 30
0.0
 10
236.795826
 20
327.811374
 30
0.0
 10
236.961626
 20
327.942243
 30
0.0
 10
237.148723
 20
328.051921
 30
0.0
 10
237.361820
 20
328.141523
 30
0.0
 10
237.605632
 20
328.212155
 30
0.0
 10
237.884866
 20
328.264933
 30
0.0
 10
238.204231
 20
328.300968
 30
0.0
 10
238.568439
 20
328.321372
 30
0.0
 10
238.982199
 20
328.327242
 30
0.0
 10
239.572275
 20
328.321598
 30
0.0
 10
240.058355
 20
328.304636
 30
0.0
 10
240.463389
 20
328.271721
 30
0.0
 10
240.810330
 20
328.218265
 30
0.0
 10
241.122121
 20
328.139666
 30
0.0
 10
241.421717
 20
328.031327
 30
0.0
 10
241.732062
 20
327.888641
 30
0.0
 10
242.076111
 20
327.707014
 30
0.0
 10
242.203670
 20
327.640164
 30
0.0
 10
242.322669
 20
327.584151
 30
0.0
 10
242.430509
 20
327.539746
 30
0.0
 10
242.524579
 20
327.507720
 30
0.0
 10
242.602281
 20
327.488839
 30
0.0
 10
242.661005
 20
327.483900
 30
0.0
 10
242.698151
 20
327.493637
 30
0.0
 10
242.711105
 20
327.518868
 30
0.0
 10
242.724059
 20
327.544014
 30
0.0
 10
242.761206
 20
327.553581
 30
0.0
 10
242.819930
 20
327.548360
 30
0.0
 10
242.897632
 20
327.529112
 30
0.0
 10
242.991702
 20
327.496643
 30
0.0
 10
243.099542
 20
327.451733
 30
0.0
 10
243.218541
 20
327.395164
 30
0.0
 10
243.346100
 20
327.327721
 30
0.0
 10
243.477629
 20
327.258097
 30
0.0
 10
243.608011
 20
327.195286
 30
0.0
 10
243.733842
 20
327.140506
 30
0.0
 10
243.851721
 20
327.094981
 30
0.0
 10
243.958243
 20
327.059932
 30
0.0
 10
244.050007
 20
327.036592
 30
0.0
 10
244.123614
 20
327.026150
 30
0.0
 10
244.175655
 20
327.029847
 30
0.0
 10
244.375599
 20
326.959517
 30
0.0
 10
244.674746
 20
326.705531
 30
0.0
 10
245.034370
 20
326.318376
 30
0.0
 10
245.415729
 20
325.848530
 30
0.0
 10
245.780089
 20
325.346482
 30
0.0
 10
246.088718
 20
324.862708
 30
0.0
 10
246.302883
 20
324.447697
 30
0.0
 10
246.383841
 20
324.151931
 30
0.0
 10
246.404584
 20
323.682189
 30
0.0
 10
246.464712
 20
323.279343
 30
0.0
 10
246.571110
 20
322.933169
 30
0.0
 10
246.730661
 20
322.633440
 30
0.0
 10
246.950244
 20
322.369932
 30
0.0
 10
247.236748
 20
322.132421
 30
0.0
 10
247.597052
 20
321.910681
 30
0.0
 10
248.038041
 20
321.694485
 30
0.0
 10
248.318562
 20
321.568431
 30
0.0
 10
248.615674
 20
321.434405
 30
0.0
 10
248.920341
 20
321.296519
 30
0.0
 10
249.223530
 20
321.158880
 30
0.0
 10
249.516206
 20
321.025592
 30
0.0
 10
249.789332
 20
320.900768
 30
0.0
 10
250.033872
 20
320.788514
 30
0.0
 10
250.240797
 20
320.692937
 30
0.0
 10
250.627797
 20
320.541213
 30
0.0
 10
251.026462
 20
320.437437
 30
0.0
 10
251.430065
 20
320.381355
 30
0.0
 10
251.831876
 20
320.372716
 30
0.0
 10
252.225169
 20
320.411266
 30
0.0
 10
252.603220
 20
320.496749
 30
0.0
 10
252.959297
 20
320.628916
 30
0.0
 10
253.286678
 20
320.807511
 30
0.0
 10
253.597049
 20
320.972182
 30
0.0
 10
253.942985
 20
321.082862
 30
0.0
 10
254.331961
 20
321.139134
 30
0.0
 10
254.771446
 20
321.140573
 30
0.0
 10
255.268911
 20
321.086775
 30
0.0
 10
255.831825
 20
320.977314
 30
0.0
 10
256.467664
 20
320.811776
 30
0.0
 10
257.183896
 20
320.589741
 30
0.0
 10
258.528236
 20
320.113674
 30
0.0
 10
259.623842
 20
319.644882
 30
0.0
 10
260.494515
 20
319.160730
 30
0.0
 10
261.164053
 20
318.638581
 30
0.0
 10
261.656260
 20
318.055799
 30
0.0
 10
261.994932
 20
317.389748
 30
0.0
 10
262.203873
 20
316.617791
 30
0.0
 10
262.306881
 20
315.717293
 30
0.0
 10
262.348156
 20
315.154432
 30
0.0
 10
262.400415
 20
314.688319
 30
0.0
 10
262.466029
 20
314.312272
 30
0.0
 10
262.547379
 20
314.019597
 30
0.0
 10
262.646846
 20
313.803606
 30
0.0
 10
262.766802
 20
313.657610
 30
0.0
 10
262.909629
 20
313.574916
 30
0.0
 10
263.077700
 20
313.548839
 30
0.0
 10
263.158137
 20
313.532159
 30
0.0
 10
263.273913
 20
313.484323
 30
0.0
 10
263.419584
 20
313.408696
 30
0.0
 10
263.589705
 20
313.308631
 30
0.0
 10
263.778825
 20
313.187484
 30
0.0
 10
263.981497
 20
313.048608
 30
0.0
 10
264.192281
 20
312.895359
 30
0.0
 10
264.405720
 20
312.731086
 30
0.0
 10
264.809921
 20
312.435128
 30
0.0
 10
265.203059
 20
312.197034
 30
0.0
 10
265.587223
 20
312.016268
 30
0.0
 10
265.964509
 20
311.892301
 30
0.0
 10
266.337009
 20
311.824591
 30
0.0
 10
266.706813
 20
311.812597
 30
0.0
 10
267.076013
 20
311.855805
 30
0.0
 10
267.446704
 20
311.953666
 30
0.0
 10
267.914890
 20
312.091859
 30
0.0
 10
268.379025
 20
312.189624
 30
0.0
 10
268.843038
 20
312.246932
 30
0.0
 10
269.310852
 20
312.263752
 30
0.0
 10
269.786396
 20
312.240046
 30
0.0
 10
270.273602
 20
312.175813
 30
0.0
 10
270.776398
 20
312.071004
 30
0.0
 10
271.298710
 20
311.925597
 30
0.0
 10
271.596691
 20
311.833330
 30
0.0
 10
271.880251
 20
311.746126
 30
0.0
 10
272.142783
 20
311.665978
 30
0.0
 10
272.377685
 20
311.594875
 30
0.0
 10
272.578347
 20
311.534801
 30
0.0
 10
272.738173
 20
311.487749
 30
0.0
 10
272.850551
 20
311.455709
 30
0.0
 10
272.908880
 20
311.440666
 30
0.0
 10
272.950186
 20
311.427740
 30
0.0
 10
273.013777
 20
311.401748
 30
0.0
 10
273.096465
 20
311.364285
 30
0.0
 10
273.195071
 20
311.316903
 30
0.0
 10
273.306410
 20
311.261161
 30
0.0
 10
273.427297
 20
311.198627
 30
0.0
 10
273.554554
 20
311.130862
 30
0.0
 10
273.684992
 20
311.059429
 30
0.0
 10
273.812550
 20
310.992791
 30
0.0
 10
273.931549
 20
310.938765
 30
0.0
 10
274.039389
 20
310.897956
 30
0.0
 10
274.133460
 20
310.870947
 30
0.0
 10
274.211161
 20
310.858360
 30
0.0
 10
274.269886
 20
310.860900
 30
0.0
 10
274.307032
 20
310.878962
 30
0.0
 10
274.319986
 20
310.913224
 30
0.0
 10
274.406789
 20
310.939668
 30
0.0
 10
274.638920
 20
310.784472
 30
0.0
 10
274.973971
 20
310.491023
 30
0.0
 10
275.369534
 20
310.102716
 30
0.0
 10
275.783192
 20
309.662948
 30
0.0
 10
276.172541
 20
309.215124
 30
0.0
 10
276.495169
 20
308.802639
 30
0.0
 10
276.708664
 20
308.468890
 30
0.0
 10
276.779522
 20
308.306279
 30
0.0
 10
276.839756
 20
308.116289
 30
0.0
 10
276.888496
 20
307.905601
 30
0.0
 10
276.924872
 20
307.680900
 30
0.0
 10
276.948014
 20
307.448861
 30
0.0
 10
276.957045
 20
307.216170
 30
0.0
 10
276.951090
 20
306.989508
 30
0.0
 10
276.929302
 20
306.775555
 30
0.0
 10
276.844218
 20
306.120202
 30
0.0
 10
276.804188
 20
305.580316
 30
0.0
 10
276.816041
 20
305.132264
 30
0.0
 10
276.886605
 20
304.752410
 30
0.0
 10
277.022710
 20
304.417127
 30
0.0
 10
277.231190
 20
304.102779
 30
0.0
 10
277.518870
 20
303.785734
 30
0.0
 10
277.892586
 20
303.442357
 30
0.0
 10
278.486458
 20
302.952340
 30
0.0
 10
279.036091
 20
302.555967
 30
0.0
 10
279.548090
 20
302.250797
 30
0.0
 10
280.029068
 20
302.034386
 30
0.0
 10
280.485624
 20
301.904293
 30
0.0
 10
280.924370
 20
301.858080
 30
0.0
 10
281.351905
 20
301.893300
 30
0.0
 10
281.774841
 20
302.007515
 30
0.0
 10
281.993727
 20
302.077420
 30
0.0
 10
282.218251
 20
302.131456
 30
0.0
 10
282.445488
 20
302.169449
 30
0.0
 10
282.672536
 20
302.191237
 30
0.0
 10
282.896451
 20
302.196627
 30
0.0
 10
283.114327
 20
302.185451
 30
0.0
 10
283.323171
 20
302.157511
 30
0.0
 10
283.520134
 20
302.112655
 30
0.0
 10
283.687520
 20
302.065701
 30
0.0
 10
283.849205
 20
302.020419
 30
0.0
 10
284.001295
 20
301.977911
 30
0.0
 10
284.139809
 20
301.939266
 30
0.0
 10
284.260911
 20
301.905589
 30
0.0
 10
284.360592
 20
301.877959
 30
0.0
 10
284.434929
 20
301.857498
 30
0.0
 10
284.480000
 20
301.845278
 30
0.0
 10
285.255208
 20
301.627620
 30
0.0
 10
285.955006
 20
301.404695
 30
0.0
 10
286.587015
 20
301.172994
 30
0.0
 10
287.158769
 20
300.929007
 30
0.0
 10
287.677888
 20
300.669227
 30
0.0
 10
288.151993
 20
300.390146
 30
0.0
 10
288.588704
 20
300.088256
 30
0.0
 10
288.995527
 20
299.760042
 30
0.0
 10
289.397666
 20
299.405004
 30
0.0
 10
289.704639
 20
299.110643
 30
0.0
 10
289.929316
 20
298.850595
 30
0.0
 10
290.084482
 20
298.598506
 30
0.0
 10
290.182893
 20
298.328010
 30
0.0
 10
290.237305
 20
298.012751
 30
0.0
 10
290.260730
 20
297.626372
 30
0.0
 10
290.265527
 20
297.142508
 30
0.0
 10
290.260730
 20
296.819552
 30
0.0
 10
290.247183
 20
296.482155
 30
0.0
 10
290.225452
 20
296.140286
 30
0.0
 10
290.196863
 20
295.803908
 30
0.0
 10
290.162234
 20
295.482987
 30
0.0
 10
290.122582
 20
295.187492
 30
0.0
 10
290.078781
 20
294.927385
 30
0.0
 10
290.031876
 20
294.712636
 30
0.0
 10
289.966908
 20
294.420706
 30
0.0
 10
289.943484
 20
294.168136
 30
0.0
 10
289.974359
 20
293.930979
 30
0.0
 10
290.071951
 20
293.685285
 30
0.0
 10
290.248848
 20
293.407102
 30
0.0
 10
290.517636
 20
293.072482
 30
0.0
 10
290.890791
 20
292.657471
 30
0.0
 10
291.380898
 20
292.138123
 30
0.0
 10
291.905549
 20
291.591024
 30
0.0
 10
292.314376
 20
291.182832
 30
0.0
 10
292.639948
 20
290.896978
 30
0.0
 10
292.914634
 20
290.716895
 30
0.0
 10
293.170949
 20
290.626005
 30
0.0
 10
293.441374
 20
290.607745
 30
0.0
 10
293.758422
 20
290.645535
 30
0.0
 10
294.154493
 20
290.722810
 30
0.0
 10
294.508795
 20
290.784007
 30
0.0
 10
294.847490
 20
290.814538
 30
0.0
 10
295.190023
 20
290.811405
 30
0.0
 10
295.555868
 20
290.771615
 30
0.0
 10
295.964469
 20
290.692172
 30
0.0
 10
296.435244
 20
290.570080
 30
0.0
 10
296.987694
 20
290.402347
 30
0.0
 10
297.641236
 20
290.185978
 30
0.0
 10
298.541496
 20
289.852408
 30
0.0
 10
299.343657
 20
289.496300
 30
0.0
 10
300.052091
 20
289.114454
 30
0.0
 10
300.671089
 20
288.703665
 30
0.0
 10
301.204997
 20
288.260729
 30
0.0
 10
301.658133
 20
287.782441
 30
0.0
 10
302.034815
 20
287.265602
 30
0.0
 10
302.339361
 20
286.707005
 30
0.0
 10
302.482956
 20
286.385543
 30
0.0
 10
302.585967
 20
286.110991
 30
0.0
 10
302.648620
 20
285.860463
 30
0.0
 10
302.671198
 20
285.611068
 30
0.0
 10
302.653982
 20
285.339916
 30
0.0
 10
302.597086
 20
285.024114
 30
0.0
 10
302.500764
 20
284.640774
 30
0.0
 10
302.365354
 20
284.167005
 30
0.0
 10
302.169915
 20
283.453378
 30
0.0
 10
302.033037
 20
282.830604
 30
0.0
 10
301.955031
 20
282.286087
 30
0.0
 10
301.936122
 20
281.807221
 30
0.0
 10
301.976649
 20
281.381407
 30
0.0
 10
302.076951
 20
280.996041
 30
0.0
 10
302.237309
 20
280.638522
 30
0.0
 10
302.457979
 20
280.296249
 30
0.0
 10
302.760662
 20
279.935630
 30
0.0
 10
303.126620
 20
279.574423
 30
0.0
 10
303.530564
 20
279.230154
 30
0.0
 10
303.947124
 20
278.920370
 30
0.0
 10
304.350956
 20
278.662602
 30
0.0
 10
304.716660
 20
278.474388
 30
0.0
 10
305.019004
 20
278.373268
 30
0.0
 10
305.232534
 20
278.376768
 30
0.0
 10
305.485010
 20
278.401152
 30
0.0
 10
305.905944
 20
278.362305
 30
0.0
 10
306.453879
 20
278.269942
 30
0.0
 10
307.087326
 20
278.133769
 30
0.0
 10
307.764660
 20
277.963493
 30
0.0
 10
308.444448
 20
277.768828
 30
0.0
 10
309.085065
 20
277.559475
 30
0.0
 10
309.645135
 20
277.345147
 30
0.0
 10
309.855390
 20
277.259611
 30
0.0
 10
310.055881
 20
277.184199
 30
0.0
 10
310.242006
 20
277.120250
 30
0.0
 10
310.408997
 20
277.069097
 30
0.0
 10
310.552140
 20
277.032081
 30
0.0
 10
310.666751
 20
277.010547
 30
0.0
 10
310.748144
 20
277.005806
 30
0.0
 10
310.791634
 20
277.019212
 30
0.0
 10
310.837890
 20
277.017236
 30
0.0
 10
310.927298
 20
276.968209
 30
0.0
 10
311.054581
 20
276.876642
 30
0.0
 10
311.214460
 20
276.746975
 30
0.0
 10
311.401686
 20
276.583650
 30
0.0
 10
311.611038
 20
276.391112
 30
0.0
 10
311.837183
 20
276.173804
 30
0.0
 10
312.074899
 20
275.936164
 30
0.0
 10
312.407159
 20
275.586663
 30
0.0
 10
312.675806
 20
275.275138
 30
0.0
 10
312.888545
 20
274.986368
 30
0.0
 10
313.053053
 20
274.705142
 30
0.0
 10
313.177118
 20
274.416245
 30
0.0
 10
313.268332
 20
274.104463
 30
0.0
 10
313.334456
 20
273.754578
 30
0.0
 10
313.383196
 20
273.351378
 30
0.0
 10
313.406621
 20
273.065891
 30
0.0
 10
313.421014
 20
272.787640
 30
0.0
 10
313.426376
 20
272.523561
 30
0.0
 10
313.423272
 20
272.280605
 30
0.0
 10
313.411701
 20
272.065709
 30
0.0
 10
313.391945
 20
271.885815
 30
0.0
 10
313.364287
 20
271.747868
 30
0.0
 10
313.328784
 20
271.658807
 30
0.0
 10
313.280862
 20
271.569805
 30
0.0
 10
313.217504
 20
271.432030
 30
0.0
 10
313.141416
 20
271.252410
 30
0.0
 10
313.055310
 20
271.037876
 30
0.0
 10
312.961951
 20
270.795357
 30
0.0
 10
312.864020
 20
270.531781
 30
0.0
 10
312.764255
 20
270.254083
 30
0.0
 10
312.665392
 20
269.969188
 30
0.0
 10
312.504159
 20
269.450822
 30
0.0
 10
312.404591
 20
268.998214
 30
0.0
 10
312.371288
 20
268.587515
 30
0.0
 10
312.408739
 20
268.194865
 30
0.0
 10
312.521431
 20
267.796412
 30
0.0
 10
312.713934
 20
267.368304
 30
0.0
 10
312.990766
 20
266.886680
 30
0.0
 10
313.356470
 20
266.327691
 30
0.0
 10
313.581909
 20
266.031208
 30
0.0
 10
313.834695
 20
265.771623
 30
0.0
 10
314.125271
 20
265.543474
 30
0.0
 10
314.464136
 20
265.341296
 30
0.0
 10
314.861758
 20
265.159630
 30
0.0
 10
315.328639
 20
264.993008
 30
0.0
 10
315.875247
 20
264.835974
 30
0.0
 10
316.512025
 20
264.683061
 30
0.0
 10
317.333348
 20
264.489504
 30
0.0
 10
318.085639
 20
264.289951
 30
0.0
 10
318.770480
 20
264.083796
 30
0.0
 10
319.389478
 20
263.870441
 30
0.0
 10
319.944327
 20
263.649278
 30
0.0
 10
320.436607
 20
263.419710
 30
0.0
 10
320.868012
 20
263.181133
 30
0.0
 10
321.240094
 20
262.932944
 30
0.0
 10
321.408016
 20
262.793188
 30
0.0
 10
321.587678
 20
262.615360
 30
0.0
 10
321.773409
 20
262.406749
 30
0.0
 10
321.959788
 20
262.174639
 30
0.0
 10
322.141060
 20
261.926314
 30
0.0
 10
322.311748
 20
261.669057
 30
0.0
 10
322.466293
 20
261.410155
 30
0.0
 10
322.599106
 20
261.156892
 30
0.0
 10
322.785796
 20
260.763073
 30
0.0
 10
322.920445
 20
260.440129
 30
0.0
 10
323.004236
 20
260.155663
 30
0.0
 10
323.038047
 20
259.877279
 30
0.0
 10
323.023089
 20
259.572586
 30
0.0
 10
322.960294
 20
259.209183
 30
0.0
 10
322.850679
 20
258.754675
 30
0.0
 10
322.695372
 20
258.176673
 30
0.0
 10
322.593406
 20
257.813809
 30
0.0
 10
322.489886
 20
257.464149
 30
0.0
 10
322.387694
 20
257.136151
 30
0.0
 10
322.289650
 20
256.838257
 30
0.0
 10
322.198661
 20
256.578920
 30
0.0
 10
322.117551
 20
256.366587
 30
0.0
 10
322.049225
 20
256.209708
 30
0.0
 10
321.996590
 20
256.116733
 30
0.0
 10
321.949798
 20
256.038560
 30
0.0
 10
321.898433
 20
255.924111
 30
0.0
 10
321.844106
 20
255.778856
 30
0.0
 10
321.788480
 20
255.608270
 30
0.0
 10
321.733333
 20
255.417829
 30
0.0
 10
321.680247
 20
255.213007
 30
0.0
 10
321.630915
 20
254.999277
 30
0.0
 10
321.587086
 20
254.782112
 30
0.0
 10
321.540096
 20
254.479587
 30
0.0
 10
321.520622
 20
254.204056
 30
0.0
 10
321.531347
 20
253.943754
 30
0.0
 10
321.575035
 20
253.686921
 30
0.0
 10
321.654509
 20
253.421787
 30
0.0
 10
321.772534
 20
253.136596
 30
0.0
 10
321.931848
 20
252.819576
 30
0.0
 10
322.135246
 20
252.458969
 30
0.0
 10
322.391363
 20
252.063985
 30
0.0
 10
322.684366
 20
251.678726
 30
0.0
 10
322.992355
 20
251.323708
 30
0.0
 10
323.293542
 20
251.019452
 30
0.0
 10
323.565887
 20
250.786478
 30
0.0
 10
323.787516
 20
250.645308
 30
0.0
 10
323.936614
 20
250.616459
 30
0.0
 10
323.991168
 20
250.720452
 30
0.0
 10
324.187425
 20
250.731967
 30
0.0
 10
324.711907
 20
250.591124
 30
0.0
 10
325.468065
 20
250.335363
 30
0.0
 10
326.359379
 20
250.002126
 30
0.0
 10
327.289301
 20
249.628859
 30
0.0
 10
328.161368
 20
249.253004
 30
0.0
 10
328.879002
 20
248.912003
 30
0.0
 10
329.345685
 20
248.643299
 30
0.0
 10
329.693580
 20
248.351642
 30
0.0
 10
330.015229
 20
247.996119
 30
0.0
 10
330.304507
 20
247.589242
 30
0.0
 10
330.555092
 20
247.143523
 30
0.0
 10
330.760832
 20
246.671469
 30
0.0
 10
330.915518
 20
246.185593
 30
0.0
 10
331.012885
 20
245.698406
 30
0.0
 10
331.046695
 20
245.222419
 30
0.0
 10
331.028915
 20
244.929681
 30
0.0
 10
330.975547
 20
244.585257
 30
0.0
 10
330.886703
 20
244.189291
 30
0.0
 10
330.762412
 20
243.741918
 30
0.0
 10
330.602646
 20
243.243279
 30
0.0
 10
330.407518
 20
242.693516
 30
0.0
 10
330.176999
 20
242.092766
 30
0.0
 10
329.911258
 20
241.441175
 30
0.0
 10
329.744409
 20
241.016574
 30
0.0
 10
329.590513
 20
240.574964
 30
0.0
 10
329.453607
 20
240.132592
 30
0.0
 10
329.337811
 20
239.705700
 30
0.0
 10
329.247190
 20
239.310532
 30
0.0
 10
329.185778
 20
238.963337
 30
0.0
 10
329.157838
 20
238.680358
 30
0.0
 10
329.167151
 20
238.477841
 30
0.0
 10
329.259382
 20
238.148660
 30
0.0
 10
329.422026
 20
237.718748
 30
0.0
 10
329.632338
 20
237.233930
 30
0.0
 10
329.867542
 20
236.740030
 30
0.0
 10
330.104835
 20
236.282875
 30
0.0
 10
330.321525
 20
235.908290
 30
0.0
 10
330.494838
 20
235.662096
 30
0.0
 10
330.601913
 20
235.590121
 30
0.0
 10
330.738452
 20
235.608691
 30
0.0
 10
330.960561
 20
235.591109
 30
0.0
 10
331.241682
 20
235.543994
 30
0.0
 10
331.555118
 20
235.473930
 30
0.0
 10
331.874199
 20
235.387511
 30
0.0
 10
332.172338
 20
235.291327
 30
0.0
 10
332.422810
 20
235.191973
 30
0.0
 10
332.599002
 20
235.096046
 30
0.0
 10
332.683076
 20
235.048562
 30
0.0
 10
332.814394
 20
234.989953
 30
0.0
 10
332.986324
 20
234.922516
 30
0.0
 10
333.192205
 20
234.848568
 30
0.0
 10
333.425377
 20
234.770406
 30
0.0
 10
333.679236
 20
234.690343
 30
0.0
 10
333.947036
 20
234.610680
 30
0.0
 10
334.222175
 20
234.533729
 30
0.0
 10
334.560023
 20
234.430216
 30
0.0
 10
334.880656
 20
234.306712
 30
0.0
 10
335.185964
 20
234.162009
 30
0.0
 10
335.477838
 20
233.994891
 30
0.0
 10
335.758338
 20
233.804142
 30
0.0
 10
336.029328
 20
233.588556
 30
0.0
 10
336.292726
 20
233.346917
 30
0.0
 10
336.550480
 20
233.078010
 30
0.0
 10
336.851921
 20
232.731554
 30
0.0
 10
337.091867
 20
232.420604
 30
0.0
 10
337.277315
 20
232.127178
 30
0.0
 10
337.415350
 20
231.833289
 30
0.0
 10
337.512886
 20
231.520951
 30
0.0
 10
337.576894
 20
231.172180
 30
0.0
 10
337.614429
 20
230.768989
 30
0.0
 10
337.632492
 20
230.293391
 30
0.0
 10
337.609349
 20
229.987996
 30
0.0
 10
337.532162
 20
229.576978
 30
0.0
 10
337.404033
 20
229.070486
 30
0.0
 10
337.228152
 20
228.478657
 30
0.0
 10
337.007764
 20
227.811642
 30
0.0
 10
336.745947
 20
227.079580
 30
0.0
 10
336.446029
 20
226.292617
 30
0.0
 10
336.111116
 20
225.460897
 30
0.0
 10
335.811453
 20
224.683866
 30
0.0
 10
335.585647
 20
223.977207
 30
0.0
 10
335.432852
 20
223.331265
 30
0.0
 10
335.352334
 20
222.736383
 30
0.0
 10
335.343302
 20
222.182900
 30
0.0
 10
335.405081
 20
221.661164
 30
0.0
 10
335.536907
 20
221.161513
 30
0.0
 10
335.738018
 20
220.674293
 30
0.0
 10
335.859233
 20
220.469312
 30
0.0
 10
336.020890
 20
220.281868
 30
0.0
 10
336.235012
 20
220.105400
 30
0.0
 10
336.513593
 20
219.933346
 30
0.0
 10
336.868601
 20
219.759139
 30
0.0
 10
337.312113
 20
219.576217
 30
0.0
 10
337.856124
 20
219.378015
 30
0.0
 10
338.512630
 20
219.157969
 30
0.0
 10
339.876412
 20
218.636569
 30
0.0
 10
340.955348
 20
218.042271
 30
0.0
 10
341.757790
 20
217.357276
 30
0.0
 10
342.292150
 20
216.563788
 30
0.0
 10
342.566921
 20
215.644009
 30
0.0
 10
342.590346
 20
214.580138
 30
0.0
 10
342.370974
 20
213.354385
 30
0.0
 10
341.917133
 20
211.948947
 30
0.0
 10
341.671600
 20
211.302579
 30
0.0
 10
341.465380
 20
210.767085
 30
0.0
 10
341.284475
 20
210.308812
 30
0.0
 10
341.114747
 20
209.894106
 30
0.0
 10
340.942253
 20
209.489309
 30
0.0
 10
340.752882
 20
209.060769
 30
0.0
 10
340.532551
 20
208.574828
 30
0.0
 10
340.267262
 20
207.997836
 30
0.0
 10
340.054777
 20
207.525096
 30
0.0
 10
339.894757
 20
207.131010
 30
0.0
 10
339.783900
 20
206.792970
 30
0.0
 10
339.718876
 20
206.488364
 30
0.0
 10
339.696298
 20
206.194585
 30
0.0
 10
339.712949
 20
205.889020
 30
0.0
 10
339.765640
 20
205.549061
 30
0.0
 10
339.850956
 20
205.152099
 30
0.0
 10
339.953346
 20
204.731861
 30
0.0
 10
340.056272
 20
204.404179
 30
0.0
 10
340.182821
 20
204.147531
 30
0.0
 10
340.356331
 20
203.940394
 30
0.0
 10
340.600086
 20
203.761251
 30
0.0
 10
340.937201
 20
203.588576
 30
0.0
 10
341.391071
 20
203.400848
 30
0.0
 10
341.984838
 20
203.176543
 30
0.0
 10
342.954187
 20
202.757028
 30
0.0
 10
343.801502
 20
202.268163
 30
0.0
 10
344.521141
 20
201.716777
 30
0.0
 10
345.107627
 20
201.109706
 30
0.0
 10
345.555288
 20
200.453779
 30
0.0
 10
345.858536
 20
199.755823
 30
0.0
 10
346.011754
 20
199.022678
 30
0.0
 10
346.008932
 20
198.261169
 30
0.0
 10
345.947661
 20
197.936139
 30
0.0
 10
345.821593
 20
197.444037
 30
0.0
 10
345.645571
 20
196.831677
 30
0.0
 10
345.434384
 20
196.145874
 30
0.0
 10
345.202877
 20
195.433438
 30
0.0
 10
344.965895
 20
194.741189
 30
0.0
 10
344.738254
 20
194.115940
 30
0.0
 10
344.534716
 20
193.604502
 30
0.0
 10
344.268129
 20
192.982134
 30
0.0
 10
344.046133
 20
192.478489
 30
0.0
 10
343.856733
 20
192.071070
 30
0.0
 10
343.687823
 20
191.737385
 30
0.0
 10
343.527408
 20
191.454937
 30
0.0
 10
343.363494
 20
191.201230
 30
0.0
 10
343.184028
 20
190.953772
 30
0.0
 10
342.976990
 20
190.690070
 30
0.0
 10
342.632312
 20
190.140634
 30
0.0
 10
342.421182
 20
189.540697
 30
0.0
 10
342.338237
 20
188.922421
 30
0.0
 10
342.377945
 20
188.317972
 30
0.0
 10
342.534917
 20
187.759511
 30
0.0
 10
342.803678
 20
187.279202
 30
0.0
 10
343.178807
 20
186.909203
 30
0.0
 10
343.654860
 20
186.681684
 30
0.0
 10
343.822867
 20
186.635710
 30
0.0
 10
343.994966
 20
186.589764
 30
0.0
 10
344.166275
 20
186.545075
 30
0.0
 10
344.331996
 20
186.502863
 30
0.0
 10
344.487161
 20
186.464351
 30
0.0
 10
344.627002
 20
186.430769
 30
0.0
 10
344.746636
 20
186.403337
 30
0.0
 10
344.841153
 20
186.383271
 30
0.0
 10
345.203244
 20
186.255249
 30
0.0
 10
345.599032
 20
186.019244
 30
0.0
 10
346.009440
 20
185.695309
 30
0.0
 10
346.415445
 20
185.303503
 30
0.0
 10
346.798110
 20
184.863874
 30
0.0
 10
347.138300
 20
184.396483
 30
0.0
 10
347.416995
 20
183.921382
 30
0.0
 10
347.615284
 20
183.458622
 30
0.0
 10
347.747957
 20
183.047176
 30
0.0
 10
347.835813
 20
182.695496
 30
0.0
 10
347.873743
 20
182.361918
 30
0.0
 10
347.856810
 20
182.004788
 30
0.0
 10
347.779848
 20
181.582442
 30
0.0
 10
347.637862
 20
181.053219
 30
0.0
 10
347.425885
 20
180.375463
 30
0.0
 10
347.138865
 20
179.507511
 30
0.0
 10
346.708363
 20
178.237079
 30
0.0
 10
346.345369
 20
177.220568
 30
0.0
 10
346.029167
 20
176.417488
 30
0.0
 10
345.739268
 20
175.787353
 30
0.0
 10
345.454958
 20
175.289674
 30
0.0
 10
345.155633
 20
174.883963
 30
0.0
 10
344.820720
 20
174.529729
 30
0.0
 10
344.429588
 20
174.186487
 30
0.0
 10
344.173415
 20
173.963199
 30
0.0
 10
343.955737
 20
173.745789
 30
0.0
 10
343.773732
 20
173.529522
 30
0.0
 10
343.624521
 20
173.309645
 30
0.0
 10
343.505338
 20
173.081421
 30
0.0
 10
343.413221
 20
172.840104
 30
0.0
 10
343.345488
 20
172.580953
 30
0.0
 10
343.299147
 20
172.299219
 30
0.0
 10
343.247585
 20
171.749109
 30
0.0
 10
343.250407
 20
171.292188
 30
0.0
 10
343.317350
 20
170.910271
 30
0.0
 10
343.460098
 20
170.585174
 30
0.0
 10
343.689827
 20
170.298710
 30
0.0
 10
344.017600
 20
170.032693
 30
0.0
 10
344.454480
 20
169.768942
 30
0.0
 10
345.011502
 20
169.489271
 30
0.0
 10
345.327873
 20
169.328811
 30
0.0
 10
345.645401
 20
169.147692
 30
0.0
 10
345.955592
 20
168.952120
 30
0.0
 10
346.249780
 20
168.748311
 30
0.0
 10
346.519472
 20
168.542472
 30
0.0
 10
346.756115
 20
168.340816
 30
0.0
 10
346.951187
 20
168.149554
 30
0.0
 10
347.096080
 20
167.974895
 30
0.0
 10
347.366618
 20
167.462077
 30
0.0
 10
347.539903
 20
166.830249
 30
0.0
 10
347.616949
 20
166.093170
 30
0.0
 10
347.598887
 20
165.264605
 30
0.0
 10
347.486619
 20
164.358313
 30
0.0
 10
347.281218
 20
163.388058
 30
0.0
 10
346.983699
 20
162.367599
 30
0.0
 10
346.595107
 20
161.310702
 30
0.0
 10
346.220175
 20
160.435644
 30
0.0
 10
345.845723
 20
159.664255
 30
0.0
 10
345.469182
 20
158.993045
 30
0.0
 10
345.088041
 20
158.418534
 30
0.0
 10
344.699731
 20
157.937235
 30
0.0
 10
344.301713
 20
157.545658
 30
0.0
 10
343.891503
 20
157.240321
 30
0.0
 10
343.466505
 20
157.017738
 30
0.0
 10
343.251169
 20
156.915515
 30
0.0
 10
343.074103
 20
156.801497
 30
0.0
 10
342.930000
 20
156.666352
 30
0.0
 10
342.813527
 20
156.500752
 30
0.0
 10
342.719434
 20
156.295365
 30
0.0
 10
342.642472
 20
156.040860
 30
0.0
 10
342.577251
 20
155.727909
 30
0.0
 10
342.518520
 20
155.347180
 30
0.0
 10
342.476751
 20
154.825701
 30
0.0
 10
342.493967
 20
154.332792
 30
0.0
 10
342.565228
 20
153.881073
 30
0.0
 10
342.685624
 20
153.483176
 30
0.0
 10
342.850188
 20
153.151720
 30
0.0
 10
343.053924
 20
152.899334
 30
0.0
 10
343.292035
 20
152.738645
 30
0.0
 10
343.559497
 20
152.682277
 30
0.0
 10
343.786319
 20
152.620044
 30
0.0
 10
344.064082
 20
152.447550
 30
0.0
 10
344.373567
 20
152.186116
 30
0.0
 10
344.695385
 20
151.857051
 30
0.0
 10
345.010430
 20
151.481673
 30
0.0
 10
345.299284
 20
151.081295
 30
0.0
 10
345.542729
 20
150.677232
 30
0.0
 10
345.721545
 20
150.290799
 30
0.0
 10
345.845243
 20
149.867971
 30
0.0
 10
345.924858
 20
149.388247
 30
0.0
 10
345.961518
 20
148.874834
 30
0.0
 10
345.956438
 20
148.350934
 30
0.0
 10
345.910634
 20
147.839745
 30
0.0
 10
345.825290
 20
147.364477
 30
0.0
 10
345.701564
 20
146.948326
 30
0.0
 10
345.540584
 20
146.614499
 30
0.0
 10
345.469182
 20
146.495354
 30
0.0
 10
345.402295
 20
146.373067
 30
0.0
 10
345.341504
 20
146.251110
 30
0.0
 10
345.288221
 20
146.132958
 30
0.0
 10
345.243884
 20
146.022081
 30
0.0
 10
345.210130
 20
145.921951
 30
0.0
 10
345.188399
 20
145.836046
 30
0.0
 10
345.179932
 20
145.767833
 30
0.0
 10
345.166103
 20
145.676579
 30
0.0
 10
345.129076
 20
145.524636
 30
0.0
 10
345.071164
 20
145.320107
 30
0.0
 10
344.994992
 20
145.071097
 30
0.0
 10
344.903072
 20
144.785705
 30
0.0
 10
344.798001
 20
144.472035
 30
0.0
 10
344.682318
 20
144.138191
 30
0.0
 10
344.558507
 20
143.792277
 30
0.0
 10
344.269342
 20
143.085203
 30
0.0
 10
343.937590
 20
142.432502
 30
0.0
 10
343.567907
 20
141.839788
 30
0.0
 10
343.165091
 20
141.312667
 30
0.0
 10
342.733969
 20
140.856751
 30
0.0
 10
342.279224
 20
140.477653
 30
0.0
 10
341.805655
 20
140.180981
 30
0.0
 10
341.317975
 20
139.972346
 30
0.0
 10
341.046082
 20
139.873308
 30
0.0
 10
340.826175
 20
139.766405
 30
0.0
 10
340.649193
 20
139.639134
 30
0.0
 10
340.506417
 20
139.478999
 30
0.0
 10
340.388787
 20
139.273496
 30
0.0
 10
340.287497
 20
139.010129
 30
0.0
 10
340.193602
 20
138.676398
 30
0.0
 10
340.098154
 20
138.259804
 30
0.0
 10
339.960204
 20
137.577823
 30
0.0
 10
339.867663
 20
137.018896
 30
0.0
 10
339.821633
 20
136.570676
 30
0.0
 10
339.824455
 20
136.220805
 30
0.0
 10
339.874493
 20
135.956936
 30
0.0
 10
339.974061
 20
135.766715
 30
0.0
 10
340.124203
 20
135.637791
 30
0.0
 10
340.326077
 20
135.557812
 30
0.0
 10
340.445993
 20
135.511793
 30
0.0
 10
340.584310
 20
135.433606
 30
0.0
 10
340.736118
 20
135.327476
 30
0.0
 10
340.896504
 20
135.197642
 30
0.0
 10
341.060588
 20
135.048336
 30
0.0
 10
341.223402
 20
134.883789
 30
0.0
 10
341.379979
 20
134.708232
 30
0.0
 10
341.525521
 20
134.525900
 30
0.0
 10
341.704478
 20
134.270207
 30
0.0
 10
341.850387
 20
134.019828
 30
0.0
 10
341.965957
 20
133.764958
 30
0.0
 10
342.053785
 20
133.495792
 30
0.0
 10
342.116466
 20
133.202523
 30
0.0
 10
342.156598
 20
132.875349
 30
0.0
 10
342.176918
 20
132.504461
 30
0.0
 10
342.180023
 20
132.080055
 30
0.0
 10
342.164501
 20
131.484625
 30
0.0
 10
342.130719
 20
130.948366
 30
0.0
 10
342.078338
 20
130.469543
 30
0.0
 10
342.007049
 20
130.046421
 30
0.0
 10
341.916484
 20
129.677269
 30
0.0
 10
341.806248
 20
129.360347
 30
0.0
 10
341.676002
 20
129.093921
 30
0.0
 10
341.525380
 20
128.876260
 30
0.0
 10
341.472012
 20
128.808298
 30
0.0
 10
341.423357
 20
128.739328
 30
0.0
 10
341.380431
 20
128.671259
 30
0.0
 10
341.344250
 20
128.605995
 30
0.0
 10
341.315717
 20
128.545447
 30
0.0
 10
341.295962
 20
128.491520
 30
0.0
 10
341.285802
 20
128.446125
 30
0.0
 10
341.285802
 20
128.411166
 30
0.0
 10
341.281004
 20
128.352619
 30
0.0
 10
341.255322
 20
128.239623
 30
0.0
 10
341.211154
 20
128.078821
 30
0.0
 10
341.150448
 20
127.876866
 30
0.0
 10
341.075264
 20
127.640400
 30
0.0
 10
340.987634
 20
127.376071
 30
0.0
 10
340.889675
 20
127.090530
 30
0.0
 10
340.783390
 20
126.790423
 30
0.0
 10
340.519145
 20
126.157399
 30
0.0
 10
340.199162
 20
125.567506
 30
0.0
 10
339.827926
 20
125.025521
 30
0.0
 10
339.410012
 20
124.536224
 30
0.0
 10
338.950018
 20
124.104393
 30
0.0
 10
338.452432
 20
123.734806
 30
0.0
 10
337.921854
 20
123.432241
 30
0.0
 10
337.362800
 20
123.201474
 30
0.0
 10
336.992694
 20
123.051049
 30
0.0
 10
336.660829
 20
122.862350
 30
0.0
 10
336.366217
 20
122.634173
 30
0.0
 10
336.107871
 20
122.365311
 30
0.0
 10
335.884746
 20
122.054559
 30
0.0
 10
335.695883
 20
121.700715
 30
0.0
 10
335.540237
 20
121.302567
 30
0.0
 10
335.416906
 20
120.858914
 30
0.0
 10
335.390659
 20
120.748251
 30
0.0
 10
335.359361
 20
120.621788
 30
0.0
 10
335.324111
 20
120.483953
 30
0.0
 10
335.286181
 20
120.339176
 30
0.0
 10
335.246698
 20
120.191881
 30
0.0
 10
335.206848
 20
120.046503
 30
0.0
 10
335.167760
 20
119.907463
 30
0.0
 10
335.130676
 20
119.779196
 30
0.0
 10
335.100450
 20
119.626379
 30
0.0
 10
335.097628
 20
119.466855
 30
0.0
 10
335.123028
 20
119.300051
 30
0.0
 10
335.176481
 20
119.125397
 30
0.0
 10
335.258269
 20
118.942317
 30
0.0
 10
335.368618
 20
118.750234
 30
0.0
 10
335.507697
 20
118.548577
 30
0.0
 10
335.675788
 20
118.336775
 30
0.0
 10
335.968679
 20
117.963364
 30
0.0
 10
336.227053
 20
117.581360
 30
0.0
 10
336.449557
 20
117.194055
 30
0.0
 10
336.634808
 20
116.804755
 30
0.0
 10
336.781281
 20
116.416755
 30
0.0
 10
336.887679
 20
116.033359
 30
0.0
 10
336.952590
 20
115.657866
 30
0.0
 10
336.974603
 20
115.293573
 30
0.0
 10
336.945450
 20
115.026613
 30
0.0
 10
336.857594
 20
114.632058
 30
0.0
 10
336.710556
 20
114.108429
 30
0.0
 10
336.503913
 20
113.454241
 30
0.0
 10
336.237157
 20
112.668012
 30
0.0
 10
335.909694
 20
111.748264
 30
0.0
 10
335.521187
 20
110.693515
 30
0.0
 10
335.071099
 20
109.502277
 30
0.0
 10
335.039349
 20
109.413434
 30
0.0
 10
335.011127
 20
109.323193
 30
0.0
 10
334.987138
 20
109.234062
 30
0.0
 10
334.967665
 20
109.148534
 30
0.0
 10
334.953271
 20
109.069117
 30
0.0
 10
334.944522
 20
108.998304
 30
0.0
 10
334.941700
 20
108.938606
 30
0.0
 10
334.945651
 20
108.892516
 30
0.0
 10
334.873092
 20
108.661647
 30
0.0
 10
334.615818
 20
108.346433
 30
0.0
 10
334.218562
 20
107.979621
 30
0.0
 10
333.726113
 20
107.593958
 30
0.0
 10
333.183258
 20
107.222190
 30
0.0
 10
332.634703
 20
106.897067
 30
0.0
 10
332.125207
 20
106.651336
 30
0.0
 10
331.699644
 20
106.517743
 30
0.0
 10
331.274533
 20
106.429447
 30
0.0
 10
330.873749
 20
106.324686
 30
0.0
 10
330.510303
 20
106.209071
 30
0.0
 10
330.197347
 20
106.088212
 30
0.0
 10
329.947919
 20
105.967715
 30
0.0
 10
329.775086
 20
105.853192
 30
0.0
 10
329.691915
 20
105.750251
 30
0.0
 10
329.711389
 20
105.664504
 30
0.0
 10
329.722960
 20
105.612521
 30
0.0
 10
329.708284
 20
105.511359
 30
0.0
 10
329.669733
 20
105.366996
 30
0.0
 10
329.609224
 20
105.185417
 30
0.0
 10
329.529017
 20
104.972599
 30
0.0
 10
329.431142
 20
104.734519
 30
0.0
 10
329.317745
 20
104.477164
 30
0.0
 10
329.191027
 20
104.206510
 30
0.0
 10
328.981449
 20
103.767107
 30
0.0
 10
328.830347
 20
103.424943
 30
0.0
 10
328.736537
 20
103.154868
 30
0.0
 10
328.698719
 20
102.931735
 30
0.0
 10
328.715652
 20
102.730394
 30
0.0
 10
328.786123
 20
102.525702
 30
0.0
 10
328.909003
 20
102.292510
 30
0.0
 10
329.082908
 20
102.005668
 30
0.0
 10
329.357002
 20
101.500769
 30
0.0
 10
329.557634
 20
100.987356
 30
0.0
 10
329.684916
 20
100.457944
 30
0.0
 10
329.739216
 20
99.905042
 30
0.0
 10
329.720589
 20
99.321167
 30
0.0
 10
329.629488
 20
98.698825
 30
0.0
 10
329.466025
 20
98.030534
 30
0.0
 10
329.230454
 20
97.308804
 30
0.0
 10
329.097273
 20
96.940416
 30
0.0
 10
328.965024
 20
96.574473
 30
0.0
 10
328.837149
 20
96.220575
 30
0.0
 10
328.717176
 20
95.888326
 30
0.0
 10
328.608464
 20
95.587325
 30
0.0
 10
328.514597
 20
95.327175
 30
0.0
 10
328.439018
 20
95.117475
 30
0.0
 10
328.385142
 20
94.967833
 30
0.0
 10
328.012524
 20
94.048570
 30
0.0
 10
327.596020
 20
93.236253
 30
0.0
 10
327.140288
 20
92.535582
 30
0.0
 10
326.649729
 20
91.951272
 30
0.0
 10
326.129001
 20
91.488027
 30
0.0
 10
325.582562
 20
91.150554
 30
0.0
 10
325.015013
 20
90.943561
 30
0.0
 10
324.430926
 20
90.871758
 30
0.0
 10
323.931111
 20
90.856434
 30
0.0
 10
323.503713
 20
90.811106
 30
0.0
 10
323.135893
 20
90.729484
 30
0.0
 10
322.814837
 20
90.605287
 30
0.0
 10
322.527591
 20
90.432222
 30
0.0
 10
322.261371
 20
90.204009
 30
0.0
 10
322.003279
 20
89.914359
 30
0.0
 10
321.740417
 20
89.556984
 30
0.0
 10
321.422183
 20
89.074776
 30
0.0
 10
321.181335
 20
88.654767
 30
0.0
 10
321.012284
 20
88.266407
 30
0.0
 10
320.909583
 20
87.879158
 30
0.0
 10
320.867758
 20
87.462474
 30
0.0
 10
320.881304
 20
86.985809
 30
0.0
 10
320.944692
 20
86.418622
 30
0.0
 10
321.052472
 20
85.730369
 30
0.0
 10
321.089556
 20
85.346883
 30
0.0
 10
321.079678
 20
84.911538
 30
0.0
 10
321.022641
 20
84.423054
 30
0.0
 10
320.918219
 20
83.880160
 30
0.0
 10
320.765988
 20
83.281578
 30
0.0
 10
320.565695
 20
82.626029
 30
0.0
 10
320.317114
 20
81.912244
 30
0.0
 10
320.019934
 20
81.138941
 30
0.0
 10
319.891608
 20
80.804575
 30
0.0
 10
319.770562
 20
80.463016
 30
0.0
 10
319.660439
 20
80.127358
 30
0.0
 10
319.565020
 20
79.810696
 30
0.0
 10
319.488086
 20
79.526134
 30
0.0
 10
319.433363
 20
79.286762
 30
0.0
 10
319.404633
 20
79.105685
 30
0.0
 10
319.404633
 20
78.995994
 30
0.0
 10
319.387982
 20
78.937808
 30
0.0
 10
319.323918
 20
78.836050
 30
0.0
 10
319.217548
 20
78.696339
 30
0.0
 10
319.073586
 20
78.524299
 30
0.0
 10
318.897028
 20
78.325550
 30
0.0
 10
318.692586
 20
78.105715
 30
0.0
 10
318.465256
 20
77.870418
 30
0.0
 10
318.219780
 20
77.625280
 30
0.0
 10
317.832006
 20
77.253009
 30
0.0
 10
317.501157
 20
76.963446
 30
0.0
 10
317.199292
 20
76.744278
 30
0.0
 10
316.898387
 20
76.583194
 30
0.0
 10
316.570416
 20
76.467887
 30
0.0
 10
316.187384
 20
76.386037
 30
0.0
 10
315.721266
 20
76.325342
 30
0.0
 10
315.144065
 20
76.273484
 30
0.0
 10
314.637984
 20
76.226355
 30
0.0
 10
314.209628
 20
76.170664
 30
0.0
 10
313.848242
 20
76.102844
 30
0.0
 10
313.542990
 20
76.019325
 30
0.0
 10
313.283007
 20
75.916546
 30
0.0
 10
313.057568
 20
75.790940
 30
0.0
 10
312.855779
 20
75.638938
 30
0.0
 10
312.666803
 20
75.456978
 30
0.0
 10
312.545645
 20
75.322784
 30
0.0
 10
312.442042
 20
75.197593
 30
0.0
 10
312.357629
 20
75.084145
 30
0.0
 10
312.293931
 20
74.985179
 30
0.0
 10
312.252642
 20
74.903436
 30
0.0
 10
312.235144
 20
74.841654
 30
0.0
 10
312.243329
 20
74.802575
 30
0.0
 10
312.278635
 20
74.788944
 30
0.0
 10
312.314759
 20
74.775990
 30
0.0
 10
312.325202
 20
74.738844
 30
0.0
 10
312.311655
 20
74.680119
 30
0.0
 10
312.275276
 20
74.602418
 30
0.0
 10
312.217703
 20
74.508347
 30
0.0
 10
312.140148
 20
74.400507
 30
0.0
 10
312.044221
 20
74.281508
 30
0.0
 10
311.931219
 20
74.153949
 30
0.0
 10
311.796599
 20
73.986840
 30
0.0
 10
311.673296
 20
73.790047
 30
0.0
 10
311.562157
 20
73.565742
 30
0.0
 10
311.463859
 20
73.316105
 30
0.0
 10
311.379249
 20
73.043320
 30
0.0
 10
311.309004
 20
72.749561
 30
0.0
 10
311.253914
 20
72.437008
 30
0.0
 10
311.214770
 20
72.107838
 30
0.0
 10
311.185475
 20
71.812857
 30
0.0
 10
311.151947
 20
71.515392
 30
0.0
 10
311.115371
 20
71.223551
 30
0.0
 10
311.076876
 20
70.945436
 30
0.0
 10
311.037647
 20
70.689150
 30
0.0
 10
310.998814
 20
70.462790
 30
0.0
 10
310.961701
 20
70.274469
 30
0.0
 10
310.927355
 20
70.132283
 30
0.0
 10
310.797617
 20
69.695552
 30
0.0
 10
310.629610
 20
69.169894
 30
0.0
 10
310.436542
 20
68.592936
 30
0.0
 10
310.231705
 20
68.002304
 30
0.0
 10
310.028449
 20
67.435621
 30
0.0
 10
309.839924
 20
66.930520
 30
0.0
 10
309.679453
 20
66.524622
 30
0.0
 10
309.560270
 20
66.255557
 30
0.0
 10
309.511079
 20
66.149526
 30
0.0
 10
309.465105
 20
66.035937
 30
0.0
 10
309.423477
 20
65.918330
 30
0.0
 10
309.387184
 20
65.800237
 30
0.0
 10
309.357183
 20
65.685192
 30
0.0
 10
309.334606
 20
65.576731
 30
0.0
 10
309.320212
 20
65.478388
 30
0.0
 10
309.315132
 20
65.393698
 30
0.0
 10
309.236618
 20
65.131353
 30
0.0
 10
309.021226
 20
64.803487
 30
0.0
 10
308.699069
 20
64.436708
 30
0.0
 10
308.300402
 20
64.057616
 30
0.0
 10
307.855338
 20
63.692810
 30
0.0
 10
307.394017
 20
63.368895
 30
0.0
 10
306.946723
 20
63.112474
 30
0.0
 10
306.543569
 20
62.950145
 30
0.0
 10
306.339014
 20
62.900615
 30
0.0
 10
306.102512
 20
62.858956
 30
0.0
 10
305.842444
 20
62.825753
 30
0.0
 10
305.567334
 20
62.801594
 30
0.0
 10
305.285535
 20
62.787060
 30
0.0
 10
305.005571
 20
62.782742
 30
0.0
 10
304.735823
 20
62.789233
 30
0.0
 10
304.484786
 20
62.807098
 30
0.0
 10
304.241877
 20
62.824765
 30
0.0
 10
303.995497
 20
62.830663
 30
0.0
 10
303.752504
 20
62.825442
 30
0.0
 10
303.519614
 20
62.809722
 30
0.0
 10
303.303686
 20
62.784097
 30
0.0
 10
303.111493
 20
62.749225
 30
0.0
 10
302.949864
 20
62.705726
 30
0.0
 10
302.825573
 20
62.654226
 30
0.0
 10
302.470199
 20
62.397836
 30
0.0
 10
302.035492
 20
61.985114
 30
0.0
 10
301.559242
 20
61.464104
 30
0.0
 10
301.079323
 20
60.882811
 30
0.0
 10
300.633638
 20
60.289326
 30
0.0
 10
300.259919
 20
59.731655
 30
0.0
 10
299.996183
 20
59.257832
 30
0.0
 10
299.880133
 20
58.915919
 30
0.0
 10
299.767639
 20
58.330083
 30
0.0
 10
299.550695
 20
57.525072
 30
0.0
 10
299.256478
 20
56.577878
 30
0.0
 10
298.912308
 20
55.565603
 30
0.0
 10
298.545363
 20
54.565238
 30
0.0
 10
298.182820
 20
53.653886
 30
0.0
 10
297.851971
 20
52.908537
 30
0.0
 10
297.579965
 20
52.406266
 30
0.0
 10
297.128269
 20
51.868012
 30
0.0
 10
296.548528
 20
51.403531
 30
0.0
 10
295.876754
 20
51.024055
 30
0.0
 10
295.148847
 20
50.740732
 30
0.0
 10
294.400817
 20
50.564795
 30
0.0
 10
293.668535
 20
50.507362
 30
0.0
 10
292.988012
 20
50.579696
 30
0.0
 10
292.395148
 20
50.792915
 30
0.0
 10
292.214836
 20
50.864853
 30
0.0
 10
292.023715
 20
50.878964
 30
0.0
 10
291.802453
 20
50.823423
 30
0.0
 10
291.531774
 20
50.686743
 30
0.0
 10
291.192232
 20
50.457353
 30
0.0
 10
290.764609
 20
50.123653
 30
0.0
 10
290.229544
 20
49.674017
 30
0.0
 10
289.567705
 20
49.096900
 30
0.0
 10
289.112537
 20
48.687396
 30
0.0
 10
288.687877
 20
48.289124
 30
0.0
 10
288.303067
 20
47.911962
 30
0.0
 10
287.967392
 20
47.565760
 30
0.0
 10
287.690137
 20
47.260424
 30
0.0
 10
287.480587
 20
47.005803
 30
0.0
 10
287.348027
 20
46.811832
 30
0.0
 10
287.301799
 20
46.688331
 30
0.0
 10
287.281761
 20
46.555687
 30
0.0
 10
287.224075
 20
46.335469
 30
0.0
 10
287.132889
 20
46.039389
 30
0.0
 10
287.012239
 20
45.679133
 30
0.0
 10
286.866161
 20
45.266496
 30
0.0
 10
286.698690
 20
44.813134
 30
0.0
 10
286.513919
 20
44.330788
 30
0.0
 10
286.315827
 20
43.831170
 30
0.0
 10
285.949898
 20
42.966949
 30
0.0
 10
285.593254
 20
42.211638
 30
0.0
 10
285.247306
 20
41.567155
 30
0.0
 10
284.913352
 20
41.035448
 30
0.0
 10
284.592804
 20
40.618521
 30
0.0
 10
284.286988
 20
40.318293
 30
0.0
 10
283.997259
 20
40.136712
 30
0.0
 10
283.724886
 20
40.075752
 30
0.0
 10
283.649759
 20
40.069261
 30
0.0
 10
283.579655
 20
40.050634
 30
0.0
 10
283.516098
 20
40.020972
 30
0.0
 10
283.460670
 20
39.981687
 30
0.0
 10
283.414865
 20
39.934161
 30
0.0
 10
283.380293
 20
39.879664
 30
0.0
 10
283.358562
 20
39.819550
 30
0.0
 10
283.350942
 20
39.755091
 30
0.0
 10
283.217338
 20
39.651233
 30
0.0
 10
282.857335
 20
39.588015
 30
0.0
 10
282.332176
 20
39.562897
 30
0.0
 10
281.703097
 20
39.573340
 30
0.0
 10
281.031312
 20
39.616774
 30
0.0
 10
280.378055
 20
39.690688
 30
0.0
 10
279.804551
 20
39.792542
 30
0.0
 10
279.372032
 20
39.919824
 30
0.0
 10
279.245630
 20
39.942966
 30
0.0
 10
279.085452
 20
39.924622
 30
0.0
 10
278.892960
 20
39.865129
 30
0.0
 10
278.669615
 20
39.765335
 30
0.0
 10
278.416882
 20
39.626002
 30
0.0
 10
278.136220
 20
39.447835
 30
0.0
 10
277.829095
 20
39.231597
 30
0.0
 10
277.496967
 20
38.977992
 30
0.0
 10
277.207435
 20
38.755375
 30
0.0
 10
276.930578
 20
38.554461
 30
0.0
 10
276.672937
 20
38.379116
 30
0.0
 10
276.441055
 20
38.233320
 30
0.0
 10
276.241476
 20
38.120911
 30
0.0
 10
276.080742
 20
38.045868
 30
0.0
 10
275.965392
 20
38.012086
 30
0.0
 10
275.901968
 20
38.023375
 30
0.0
 10
275.867608
 20
38.051315
 30
0.0
 10
275.835553
 20
38.065144
 30
0.0
 10
275.806507
 20
38.065144
 30
0.0
 10
275.781163
 20
38.052162
 30
0.0
 10
275.760222
 20
38.026480
 30
0.0
 10
275.744390
 20
37.989001
 30
0.0
 10
275.734399
 20
37.940176
 30
0.0
 10
275.730899
 20
37.880627
 30
0.0
 10
275.715942
 20
37.810072
 30
0.0
 10
275.673095
 20
37.729723
 30
0.0
 10
275.605356
 20
37.642375
 30
0.0
 10
275.515728
 20
37.550822
 30
0.0
 10
275.407219
 20
37.457887
 30
0.0
 10
275.282827
 20
37.366334
 30
0.0
 10
275.145562
 20
37.278986
 30
0.0
 10
274.998426
 20
37.198609
 30
0.0
 10
274.690270
 20
37.014036
 30
0.0
 10
274.407994
 20
36.773469
 30
0.0
 10
274.140016
 20
36.456703
 30
0.0
 10
273.874755
 20
36.043417
 30
0.0
 10
273.600632
 20
35.513404
 30
0.0
 10
273.306060
 20
34.846428
 30
0.0
 10
272.979461
 20
34.022170
 30
0.0
 10
272.609254
 20
33.020422
 30
0.0
 10
272.525637
 20
32.808247
 30
0.0
 10
272.424378
 20
32.583768
 30
0.0
 10
272.309356
 20
32.353728
 30
0.0
 10
272.184447
 20
32.125015
 30
0.0
 10
272.053535
 20
31.904402
 30
0.0
 10
271.920493
 20
31.698691
 30
0.0
 10
271.789206
 20
31.514738
 30
0.0
 10
271.663549
 20
31.359318
 30
0.0
 10
271.345319
 20
31.056353
 30
0.0
 10
270.931315
 20
30.750170
 30
0.0
 10
270.455700
 20
30.457167
 30
0.0
 10
269.952642
 20
30.193825
 30
0.0
 10
269.456306
 20
29.976514
 30
0.0
 10
269.000853
 20
29.821715
 30
0.0
 10
268.620452
 20
29.745854
 30
0.0
 10
268.349267
 20
29.765327
 30
0.0
 10
267.506512
 20
30.035216
 30
0.0
 10
266.753374
 20
30.207428
 30
0.0
 10
266.062333
 20
30.278238
 30
0.0
 10
265.405873
 20
30.243920
 30
0.0
 10
264.756474
 20
30.100748
 30
0.0
 10
264.086617
 20
29.844942
 30
0.0
 10
263.368784
 20
29.472776
 30
0.0
 10
262.575461
 20
28.980524
 30
0.0
 10
262.166611
 20
28.714896
 30
0.0
 10
261.774251
 20
28.467077
 30
0.0
 10
261.407755
 20
28.242513
 30
0.0
 10
261.076488
 20
28.046622
 30
0.0
 10
260.789824
 20
27.884824
 30
0.0
 10
260.557129
 20
27.762537
 30
0.0
 10
260.387773
 20
27.685180
 30
0.0
 10
260.291123
 20
27.658087
 30
0.0
 10
260.119721
 20
27.610984
 30
0.0
 10
259.916289
 20
27.481952
 30
0.0
 10
259.696393
 20
27.289279
 30
0.0
 10
259.475594
 20
27.051309
 30
0.0
 10
259.269453
 20
26.786387
 30
0.0
 10
259.093535
 20
26.512829
 30
0.0
 10
258.963406
 20
26.248979
 30
0.0
 10
258.894625
 20
26.013155
 30
0.0
 10
258.726059
 20
25.330967
 30
0.0
 10
258.439277
 20
24.638309
 30
0.0
 10
258.056970
 20
23.963205
 30
0.0
 10
257.601833
 20
23.333680
 30
0.0
 10
257.096562
 20
22.777759
 30
0.0
 10
256.563853
 20
22.323409
 30
0.0
 10
256.026398
 20
21.998685
 30
0.0
 10
255.506897
 20
21.831581
 30
0.0
 10
255.032140
 20
21.768081
 30
0.0
 10
254.578953
 20
21.730884
 30
0.0
 10
254.141701
 20
21.720442
 30
0.0
 10
253.714752
 20
21.737093
 30
0.0
 10
253.292477
 20
21.781261
 30
0.0
 10
252.869240
 20
21.853312
 30
0.0
 10
252.439410
 20
21.953698
 30
0.0
 10
251.997354
 20
22.082815
 30
0.0
 10
251.576284
 20
22.212637
 30
0.0
 10
251.230799
 20
22.299787
 30
0.0
 10
250.928968
 20
22.340371
 30
0.0
 10
250.638855
 20
22.330493
 30
0.0
 10
250.328526
 20
22.265921
 30
0.0
 10
249.966048
 20
22.142844
 30
0.0
 10
249.519488
 20
21.957311
 30
0.0
 10
248.956915
 20
21.705315
 30
0.0
 10
248.602483
 20
21.545605
 30
0.0
 10
248.263735
 20
21.395237
 30
0.0
 10
247.948664
 20
21.257597
 30
0.0
 10
247.665265
 20
21.136044
 30
0.0
 10
247.421530
 20
21.034021
 30
0.0
 10
247.225450
 20
20.954857
 30
0.0
 10
247.085019
 20
20.902025
 30
0.0
 10
247.008229
 20
20.878883
 30
0.0
 10
246.946866
 20
20.859410
 30
0.0
 10
246.850645
 20
20.817133
 30
0.0
 10
246.724461
 20
20.754734
 30
0.0
 10
246.573207
 20
20.674837
 30
0.0
 10
246.401773
 20
20.580123
 30
0.0
 10
246.215055
 20
20.473189
 30
0.0
 10
246.017946
 20
20.356744
 30
0.0
 10
245.815335
 20
20.233385
 30
0.0
 10
245.615093
 20
20.112396
 30
0.0
 10
245.424774
 20
20.002753
 30
0.0
 10
245.248788
 20
19.906571
 30
0.0
 10
245.091560
 20
19.826081
 30
0.0
 10
244.957498
 20
19.763400
 30
0.0
 10
244.851027
 20
19.720728
 30
0.0
 10
244.776557
 20
19.700126
 30
0.0
 10
244.738508
 20
19.704077
 30
0.0
 10
244.643887
 20
19.687990
 30
0.0
 10
244.489515
 20
19.555938
 30
0.0
 10
244.297691
 20
19.338881
 30
0.0
 10
244.090726
 20
19.067835
 30
0.0
 10
243.890924
 20
18.773759
 30
0.0
 10
243.720592
 20
18.487671
 30
0.0
 10
243.602033
 20
18.240557
 30
0.0
 10
243.557558
 20
18.063378
 30
0.0
 10
243.487217
 20
17.747063
 30
0.0
 10
243.292565
 20
17.361322
 30
0.0
 10
242.998157
 20
16.933332
 30
0.0
 10
242.628553
 20
16.490215
 30
0.0
 10
242.208304
 20
16.059205
 30
0.0
 10
241.761972
 20
15.667452
 30
0.0
 10
241.314114
 20
15.342135
 30
0.0
 10
240.889282
 20
15.110430
 30
0.0
 10
240.487237
 20
14.955406
 30
0.0
 10
240.096935
 20
14.850786
 30
0.0
 10
239.699154
 20
14.797643
 30
0.0
 10
239.274672
 20
14.797643
 30
0.0
 10
238.804272
 20
14.850927
 30
0.0
 10
238.268727
 20
14.959103
 30
0.0
 10
237.648823
 20
15.123300
 30
0.0
 10
236.925335
 20
15.344675
 30
0.0
 10
236.405369
 20
15.501675
 30
0.0
 10
235.956385
 20
15.606690
 30
0.0
 10
235.541140
 20
15.656248
 30
0.0
 10
235.122401
 20
15.646935
 30
0.0
 10
234.662938
 20
15.575335
 30
0.0
 10
234.125510
 20
15.438062
 30
0.0
 10
233.472883
 20
15.231617
 30
0.0
 10
232.667824
 20
14.952583
 30
0.0
 10
232.148047
 20
14.770525
 30
0.0
 10
231.635306
 20
14.594644
 30
0.0
 10
231.142808
 20
14.429233
 30
0.0
 10
230.683768
 20
14.278583
 30
0.0
 10
230.271399
 20
14.146955
 30
0.0
 10
229.918915
 20
14.038610
 30
0.0
 10
229.639526
 20
13.957894
 30
0.0
 10
229.446447
 20
13.909013
 30
0.0
 10
229.125232
 20
13.816529
 30
0.0
 10
228.816789
 20
13.684703
 30
0.0
 10
228.530379
 20
13.521268
 30
0.0
 10
228.275269
 20
13.333929
 30
0.0
 10
228.060721
 20
13.130362
 30
0.0
 10
227.896005
 20
12.918357
 30
0.0
 10
227.790381
 20
12.705533
 30
0.0
 10
227.753113
 20
12.499680
 30
0.0
 10
227.678965
 20
12.235435
 30
0.0
 10
227.481068
 20
11.867615
 30
0.0
 10
227.196232
 20
11.441742
 30
0.0
 10
226.861277
 20
11.003225
 30
0.0
 10
226.513017
 20
10.597615
 30
0.0
 10
226.188264
 20
10.270378
 30
0.0
 10
225.923839
 20
10.066981
 30
0.0
 10
225.756555
 20
10.032945
 30
0.0
 10
225.708297
 20
10.054676
 30
0.0
 10
225.656284
 20
10.063707
 30
0.0
 10
225.602154
 20
10.060603
 30
0.0
 10
225.547541
 20
10.045927
 30
0.0
 10
225.494088
 20
10.020245
 30
0.0
 10
225.443432
 20
9.984233
 30
0.0
 10
225.397212
 20
9.938513
 30
0.0
 10
225.357069
 20
9.883734
 30
0.0
 10
225.167097
 20
9.739377
 30
0.0
 10
224.827152
 20
9.647909
 30
0.0
 10
224.364573
 20
9.607721
 30
0.0
 10
223.806693
 20
9.617316
 30
0.0
 10
223.180854
 20
9.675087
 30
0.0
 10
222.514391
 20
9.779509
 30
0.0
 10
221.834642
 20
9.929031
 30
0.0
 10
221.168942
 20
10.122071
 30
0.0
 10
220.376157
 20
10.343107
 30
0.0
 10
219.571229
 20
10.481396
 30
0.0
 10
218.733220
 20
10.535216
 30
0.0
 10
217.841192
 20
10.502845
 30
0.0
 10
216.874203
 20
10.382562
 30
0.0
 10
215.811314
 20
10.172673
 30
0.0
 10
214.631586
 20
9.871401
 30
0.0
 10
213.314082
 20
9.477080
 30
0.0
 10
212.809187
 20
9.309355
 30
0.0
 10
212.410311
 20
9.153004
 30
0.0
 10
212.101893
 20
8.993182
 30
0.0
 10
211.868377
 20
8.814987
 30
0.0
 10
211.694197
 20
8.603602
 30
0.0
 10
211.563797
 20
8.344099
 30
0.0
 10
211.461612
 20
8.021660
 30
0.0
 10
211.372083
 20
7.621384
 30
0.0
 10
211.310646
 20
7.473669
 30
0.0
 10
211.188718
 20
7.299199
 30
0.0
 10
211.022497
 20
7.112340
 30
0.0
 10
210.828184
 20
6.927343
 30
0.0
 10
210.621979
 20
6.758574
 30
0.0
 10
210.420080
 20
6.620286
 30
0.0
 10
210.238687
 20
6.526842
 30
0.0
 10
210.094003
 20
6.492495
 30
0.0
 10
210.020555
 20
6.487133
 30
0.0
 10
209.948323
 20
6.471611
 30
0.0
 10
209.879153
 20
6.447058
 30
0.0
 10
209.814891
 20
6.414630
 30
0.0
 10
209.757383
 20
6.375373
 30
0.0
 10
209.708476
 20
6.330359
 30
0.0
 10
209.670018
 20
6.280688
 30
0.0
 10
209.643856
 20
6.227432
 30
0.0
 10
209.489427
 20
6.090103
 30
0.0
 10
209.161295
 20
5.971400
 30
0.0
 10
208.707696
 20
5.875868
 30
0.0
 10
208.176859
 20
5.808050
 30
0.0
 10
207.617015
 20
5.772575
 30
0.0
 10
207.076390
 20
5.772575
 30
0.0
 10
206.603219
 20
5.815416
 30
0.0
 10
206.245734
 20
5.904260
 30
0.0
 10
205.976463
 20
6.010911
 30
0.0
 10
205.690549
 20
6.122389
 30
0.0
 10
205.400543
 20
6.233980
 30
0.0
 10
205.119007
 20
6.340914
 30
0.0
 10
204.858496
 20
6.438450
 30
0.0
 10
204.631567
 20
6.521903
 30
0.0
 10
204.450772
 20
6.586475
 30
0.0
 10
204.328672
 20
6.627482
 30
0.0
 10
203.542971
 20
6.866327
 30
0.0
 10
202.890027
 20
7.045736
 30
0.0
 10
202.330030
 20
7.169518
 30
0.0
 10
201.823168
 20
7.241485
 30
0.0
 10
201.329631
 20
7.265474
 30
0.0
 10
200.809614
 20
7.245154
 30
0.0
 10
200.223306
 20
7.184645
 30
0.0
 10
199.530894
 20
7.087589
 30
0.0
 10
199.089859
 20
7.023722
 30
0.0
 10
198.647792
 20
6.964202
 30
0.0
 10
198.216557
 20
6.910354
 30
0.0
 10
197.808015
 20
6.863448
 30
0.0
 10
197.434036
 20
6.824812
 30
0.0
 10
197.106484
 20
6.795715
 30
0.0
 10
196.837221
 20
6.777370
 30
0.0
 10
196.638116
 20
6.771162
 30
0.0
 10
196.359566
 20
6.759026
 30
0.0
 10
196.107801
 20
6.709355
 30
0.0
 10
195.860396
 20
6.604594
 30
0.0
 10
195.594918
 20
6.427358
 30
0.0
 10
195.288944
 20
6.160179
 30
0.0
 10
194.920043
 20
5.785726
 30
0.0
 10
194.465787
 20
5.286560
 30
0.0
 10
193.903744
 20
4.645294
 30
0.0
 10
193.596345
 20
4.300024
 30
0.0
 10
193.332250
 20
4.032957
 30
0.0
 10
193.088364
 20
3.833539
 30
0.0
 10
192.841595
 20
3.691129
 30
0.0
 10
192.568841
 20
3.595174
 30
0.0
 10
192.247015
 20
3.535032
 30
0.0
 10
191.853013
 20
3.500121
 30
0.0
 10
191.363744
 20
3.479801
 30
0.0
 10
191.007833
 20
3.475850
 30
0.0
 10
190.676437
 20
3.486010
 30
0.0
 10
190.372554
 20
3.509717
 30
0.0
 10
190.099185
 20
3.546293
 30
0.0
 10
189.859336
 20
3.595400
 30
0.0
 10
189.656000
 20
3.656472
 30
0.0
 10
189.492187
 20
3.729060
 30
0.0
 10
189.370894
 20
3.812654
 30
0.0
 10
189.280094
 20
3.889193
 30
0.0
 10
189.184252
 20
3.960934
 30
0.0
 10
189.086261
 20
4.026296
 30
0.0
 10
188.989010
 20
4.083672
 30
0.0
 10
188.895403
 20
4.131481
 30
0.0
 10
188.808323
 20
4.168113
 30
0.0
 10
188.730670
 20
4.192102
 30
0.0
 10
188.665338
 20
4.201698
 30
0.0
 10
188.418162
 20
4.245837
 30
0.0
 10
188.038393
 20
4.356130
 30
0.0
 10
187.572450
 20
4.514569
 30
0.0
 10
187.066758
 20
4.703150
 30
0.0
 10
186.567744
 20
4.903895
 30
0.0
 10
186.121833
 20
5.098797
 30
0.0
 10
185.775445
 20
5.269909
 30
0.0
 10
185.575005
 20
5.399195
 30
0.0
 10
185.454070
 20
5.448442
 30
0.0
 10
185.211579
 20
5.494360
 30
0.0
 10
184.862112
 20
5.535988
 30
0.0
 10
184.420248
 20
5.572310
 30
0.0
 10
183.900566
 20
5.602310
 30
0.0
 10
183.317648
 20
5.624888
 30
0.0
 10
182.686068
 20
5.639281
 30
0.0
 10
182.020413
 20
5.644361
 30
0.0
 10
181.013196
 20
5.640974
 30
0.0
 10
180.223866
 20
5.627428
 30
0.0
 10
179.619077
 20
5.598585
 30
0.0
 10
179.165490
 20
5.549055
 30
0.0
 10
178.829764
 20
5.473560
 30
0.0
 10
178.578550
 20
5.366796
 30
0.0
 10
178.378510
 20
5.223511
 30
0.0
 10
178.196302
 20
5.038402
 30
0.0
 10
178.065839
 20
4.900282
 30
0.0
 10
177.900700
 20
4.739641
 30
0.0
 10
177.707606
 20
4.562293
 30
0.0
 10
177.493275
 20
4.374022
 30
0.0
 10
177.264430
 20
4.180587
 30
0.0
 10
177.027789
 20
3.987801
 30
0.0
 10
176.790071
 20
3.801422
 30
0.0
 10
176.557994
 20
3.627291
 30
0.0
 10
176.048687
 20
3.305614
 30
0.0
 10
175.515832
 20
3.065076
 30
0.0
 10
174.967446
 20
2.906213
 30
0.0
 10
174.411536
 20
2.829533
 30
0.0
 10
173.856119
 20
2.835460
 30
0.0
 10
173.309204
 20
2.924642
 30
0.0
 10
172.778807
 20
3.097531
 30
0.0
 10
172.272935
 20
3.354636
 30
0.0
 10
172.272932
 20
3.354636
 30
0.0
 10
172.272926
 20
3.354636
 30
0.0
 10
172.272923
 20
3.354636
 30
0.0
 10
172.272920
 20
3.354636
 30
0.0
 10
172.272918
 20
3.354636
 30
0.0
 10
172.272912
 20
3.354636
 30
0.0
 10
172.272909
 20
3.354636
 30
0.0
 10
172.273146
 20
3.354636
 30
0.0
  0
ENDSEC
  0
SECTION
  2
OBJECTS
  0
DICTIONARY
  5
C
330
0
100
AcDbDictionary
  3
ACAD_GROUP
350
D
  3
ACAD_MLINESTYLE
350
17
  0
DICTIONARY
  5
D
330
C
100
AcDbDictionary
  0
DICTIONARY
  5
1A
330
C
100
AcDbDictionary
  0
DICTIONARY
  5
17
330
C
100
AcDbDictionary
  3
STANDARD
350
18
  0
DICTIONARY
  5
19
330
C
100
AcDbDictionary
  0
ENDSEC
  0
EOF
